<svg width="43" height="27" viewBox="0 0 43 27" fill="none" xmlns="http://www.w3.org/2000/svg">
<g clip-path="url(#clip0)">
<path fill-rule="evenodd" clip-rule="evenodd" d="M18.0997 3.76179C18.0945 3.98794 18.0977 4.21388 18.0977 4.44003C18.0976 4.6489 18.094 4.85799 18.0985 5.06686C18.1051 5.38373 17.9579 5.60287 17.7132 5.74303C17.4113 5.91591 17.1059 5.89717 16.823 5.68657C16.6287 5.54204 16.5198 5.33945 16.5238 5.07529C16.527 4.86901 16.5292 4.66229 16.5234 4.45623C16.5139 4.11365 16.7268 3.8402 17.0045 3.73738C17.1097 3.69829 17.2256 3.68144 17.3375 3.67712C17.5648 3.66848 17.7925 3.67712 18.02 3.67431C18.0815 3.67366 18.1012 3.69116 18.0997 3.76179V3.76179ZM21.053 3.07232C21.053 3.07232 20.9676 2.69216 20.8864 2.52713C20.8342 2.40142 20.7726 2.28197 20.7012 2.16922C20.6998 2.16685 20.699 2.16533 20.699 2.16533L20.6988 2.16555C20.6016 2.01262 20.4862 1.87201 20.3496 1.74521C20.3056 1.70439 20.2606 1.66573 20.2148 1.62944C19.8675 1.35469 19.4711 1.21234 19.036 1.18102C18.8138 1.16504 18.5902 1.17065 18.3674 1.16504C18.3361 1.16417 18.3052 1.15575 18.2742 1.15078C17.1263 1.15078 15.9785 1.15078 14.8306 1.15078C14.8018 1.15575 14.7731 1.16461 14.7442 1.16482C14.5735 1.16633 14.4026 1.16547 14.2318 1.16569C14.1231 1.16569 14.1204 1.16785 14.1212 1.28557C14.1249 1.84349 14.132 2.40164 14.1328 2.95957C14.1348 4.30006 14.1339 5.6406 14.1342 6.98105C14.1343 7.05404 14.1357 7.08138 14.164 7.09175C14.1798 7.0975 14.2038 7.09808 14.2408 7.09808C14.4822 7.09843 14.7236 7.09683 14.965 7.09959C15.027 7.10029 15.0523 7.077 15.0496 7.00982C15.049 6.99371 15.0484 6.97768 15.0477 6.96166C15.0427 6.83534 15.038 6.70902 15.0378 6.58273C15.0361 5.10207 15.0356 3.62139 15.0345 2.14071C15.0345 2.02342 15.0342 2.02342 15.1449 2.02321C15.9898 2.02277 16.8348 2.02083 17.6796 2.02256C18.0415 2.02342 18.4035 2.02839 18.7652 2.0379C18.8849 2.04092 19.0059 2.05366 19.1234 2.07829C19.486 2.15454 19.7679 2.36492 19.9635 2.70317C20.058 2.86647 20.1428 3.04143 20.143 3.23777C20.1436 4.08363 20.136 4.92949 20.133 5.77543C20.1326 5.835 20.1152 5.85878 20.0582 5.85829C19.8123 5.85608 19.5663 5.85777 19.3204 5.85701C19.2358 5.85675 19.1742 5.81433 19.1314 5.73493C19.0817 5.64261 19.0644 5.54465 19.0652 5.43851C19.0714 4.60505 19.0757 3.77151 19.0803 2.93797C19.081 2.82154 19.0781 2.81917 18.9685 2.81917C18.4128 2.81895 17.8571 2.8183 17.3014 2.81938C16.9765 2.82003 16.6685 2.90017 16.3881 3.0788C15.8852 3.39934 15.607 3.86633 15.6106 4.51023C15.6117 4.69232 15.6095 4.87419 15.611 5.05628C15.6156 5.60844 15.8374 6.04035 16.2467 6.36014C16.5789 6.61951 16.9535 6.72885 17.3646 6.71874C17.7447 6.70945 18.0834 6.58534 18.3885 6.34629C18.4292 6.31441 18.4508 6.32132 18.486 6.35634C18.5592 6.42932 18.6342 6.50274 18.7176 6.56061C18.8991 6.68634 19.1041 6.72928 19.3172 6.72963C19.8592 6.73047 20.4012 6.72978 20.9434 6.72995C21.0316 6.73004 21.062 6.7287 21.062 6.7287L21.053 3.07232" fill="#F18014"/>
<path fill-rule="evenodd" clip-rule="evenodd" d="M16.8888 9.32414V9.42285H16.377C16.3763 9.39797 16.38 9.37425 16.3881 9.35155C16.4012 9.31375 16.422 9.27679 16.4507 9.24035C16.4794 9.20383 16.5209 9.16156 16.5751 9.11354C16.6592 9.03913 16.7162 8.98014 16.7457 8.93653C16.7753 8.89298 16.7901 8.85181 16.7901 8.813C16.7901 8.77233 16.7767 8.73798 16.7497 8.71005C16.7227 8.68212 16.6876 8.66813 16.6443 8.66813C16.5985 8.66813 16.5619 8.68297 16.5345 8.71258C16.507 8.74228 16.4931 8.78338 16.4927 8.83585L16.395 8.82496C16.4017 8.74625 16.4269 8.68627 16.4705 8.64508C16.5142 8.60382 16.5728 8.58315 16.6464 8.58315C16.7207 8.58315 16.7795 8.60536 16.8228 8.6499C16.8662 8.69437 16.8878 8.74954 16.8878 8.81535C16.8878 8.84877 16.8814 8.88166 16.8688 8.914C16.8561 8.94631 16.835 8.98031 16.8057 9.01608C16.7763 9.05185 16.7274 9.10106 16.6591 9.16324C16.6021 9.21504 16.5654 9.25005 16.5492 9.26845C16.5331 9.28701 16.5197 9.30556 16.5092 9.32414H16.8888" fill="#292D6D"/>
<path fill-rule="evenodd" clip-rule="evenodd" d="M17.0879 9.00984C17.0879 9.14713 17.1027 9.23841 17.1325 9.28381C17.1623 9.32937 17.199 9.35207 17.2427 9.35207C17.2863 9.35207 17.323 9.32922 17.3527 9.28355C17.3825 9.238 17.3974 9.1467 17.3974 9.00984C17.3974 8.87214 17.3825 8.78068 17.3527 8.73545C17.323 8.69016 17.2859 8.66754 17.2416 8.66754C17.1979 8.66754 17.163 8.68754 17.1369 8.72744C17.1043 8.77842 17.0879 8.87257 17.0879 9.00984V9.00984ZM16.9902 9.00984C16.9902 8.91095 16.9995 8.83131 17.0184 8.77107C17.0373 8.71083 17.0652 8.66433 17.1024 8.6316C17.1395 8.59886 17.1863 8.58257 17.2427 8.58257C17.2842 8.58257 17.3206 8.5916 17.3519 8.60965C17.3833 8.62771 17.4092 8.65378 17.4296 8.68778C17.45 8.72178 17.466 8.7633 17.4777 8.81215C17.4893 8.86101 17.4951 8.92692 17.4951 9.00984C17.4951 9.10797 17.4858 9.18704 17.4672 9.24737C17.4484 9.30762 17.4205 9.35427 17.3834 9.38708C17.3462 9.42009 17.2994 9.43652 17.2427 9.43652C17.168 9.43652 17.1094 9.40758 17.0667 9.34971C17.0157 9.28018 16.9902 9.16696 16.9902 9.00984Z" fill="#292D6D"/>
<path fill-rule="evenodd" clip-rule="evenodd" d="M17.9512 9.42285H17.8562V8.76852C17.8333 8.79207 17.8032 8.8157 17.7661 8.83924C17.7289 8.86285 17.6956 8.88058 17.666 8.89231V8.79308C17.7191 8.76608 17.7656 8.73334 17.8054 8.69495C17.8452 8.65657 17.8734 8.61927 17.8899 8.58315H17.9512V9.42285" fill="#292D6D"/>
<path fill-rule="evenodd" clip-rule="evenodd" d="M18.4708 9.42285H18.3757V8.76852C18.3528 8.79207 18.3228 8.8157 18.2856 8.83924C18.2485 8.86285 18.2151 8.88058 18.1855 8.89231V8.79308C18.2387 8.76608 18.2852 8.73334 18.3251 8.69495C18.3648 8.65657 18.393 8.61927 18.4095 8.58315H18.4708V9.42285" fill="#292D6D"/>
<path fill-rule="evenodd" clip-rule="evenodd" d="M23.6426 9.42285H23.5476V8.76852C23.5246 8.79207 23.4946 8.8157 23.4574 8.83924C23.4204 8.86285 23.387 8.88058 23.3574 8.89231V8.79308C23.4108 8.76608 23.457 8.73334 23.4968 8.69495C23.5366 8.65657 23.5648 8.61927 23.5814 8.58315H23.6426V9.42285" fill="#292D6D"/>
<path fill-rule="evenodd" clip-rule="evenodd" d="M24.1932 9.12846V8.75139L23.9508 9.12846H24.1932ZM24.1932 9.42285V9.22264H23.8574V9.12846L24.2108 8.58652H24.2886V9.12846H24.3932V9.22264H24.2886V9.42285H24.1932" fill="#292D6D"/>
<path fill-rule="evenodd" clip-rule="evenodd" d="M24.4883 9.20182L24.5835 9.188C24.5943 9.2463 24.6129 9.28822 24.6391 9.31388C24.6653 9.33961 24.6973 9.35235 24.7349 9.35235C24.7797 9.35235 24.8175 9.33574 24.8483 9.30224C24.8791 9.26874 24.8945 9.22731 24.8945 9.17778C24.8945 9.13069 24.8803 9.09181 24.8517 9.06118C24.8233 9.03047 24.7869 9.0152 24.7429 9.0152C24.7249 9.0152 24.7025 9.01906 24.6759 9.02667L24.6863 8.93646C24.6927 8.93722 24.6979 8.93765 24.7017 8.93765C24.7423 8.93765 24.7787 8.92627 24.8111 8.90348C24.8435 8.88061 24.8597 8.84542 24.8597 8.79792C24.8597 8.76021 24.8479 8.72908 24.8243 8.70435C24.8009 8.67964 24.7703 8.66731 24.7329 8.66731C24.6959 8.66722 24.6651 8.67979 24.6405 8.70487C24.6159 8.73001 24.5999 8.76764 24.5929 8.81784L24.4979 8.79961C24.5095 8.73077 24.5359 8.67744 24.5771 8.63964C24.6183 8.60175 24.6695 8.58285 24.7307 8.58285C24.7731 8.58285 24.8119 8.59263 24.8475 8.61223C24.8831 8.6318 24.9103 8.65854 24.9291 8.6923C24.9479 8.72621 24.9573 8.76215 24.9573 8.80013C24.9573 8.83633 24.9483 8.86922 24.9305 8.89884C24.9127 8.92854 24.8859 8.95217 24.8507 8.96956C24.8965 8.98103 24.9321 9.00466 24.9573 9.0406C24.9827 9.07654 24.9953 9.12143 24.9953 9.17543C24.9953 9.2485 24.9707 9.31043 24.9215 9.36121C24.8721 9.41192 24.8099 9.4375 24.7345 9.4375C24.6665 9.43741 24.6101 9.41547 24.5651 9.37177C24.5203 9.32797 24.4947 9.27135 24.4883 9.20182" fill="#292D6D"/>
<path fill-rule="evenodd" clip-rule="evenodd" d="M25.59 9.32414V9.42285H25.0782C25.0774 9.39797 25.0812 9.37425 25.0892 9.35155C25.1022 9.31375 25.1232 9.27679 25.1518 9.24035C25.1806 9.20383 25.222 9.16156 25.2762 9.11354C25.3604 9.03913 25.4172 8.98014 25.4468 8.93653C25.4764 8.89298 25.4912 8.85181 25.4912 8.813C25.4912 8.77233 25.4778 8.73798 25.4508 8.71005C25.4238 8.68212 25.3888 8.66813 25.3454 8.66813C25.2996 8.66813 25.263 8.68297 25.2356 8.71258C25.208 8.74228 25.1942 8.78338 25.1938 8.83585L25.0962 8.82496C25.1028 8.74625 25.128 8.68627 25.1716 8.64508C25.2154 8.60382 25.274 8.58315 25.3476 8.58315C25.4218 8.58315 25.4806 8.60536 25.524 8.6499C25.5672 8.69437 25.589 8.74954 25.589 8.81535C25.589 8.84877 25.5826 8.88166 25.57 8.914C25.5572 8.94631 25.5362 8.98031 25.5068 9.01608C25.4774 9.05185 25.4286 9.10106 25.3604 9.16324C25.3032 9.21504 25.2666 9.25005 25.2504 9.26845C25.2342 9.28701 25.2208 9.30556 25.2102 9.32414H25.59" fill="#292D6D"/>
<path fill-rule="evenodd" clip-rule="evenodd" d="M25.4129 2.13672H24.5625V1.19841H25.4129V2.13672Z" fill="#F18014"/>
<path fill-rule="evenodd" clip-rule="evenodd" d="M26.0919 2.77441H25.3535V1.95966H26.0919V2.77441Z" fill="#292D6D"/>
<path fill-rule="evenodd" clip-rule="evenodd" d="M24.5214 3.07129H23.668V2.13666H24.5214V3.07129Z" fill="#292D6D"/>
<path fill-rule="evenodd" clip-rule="evenodd" d="M27.045 1.90137H26.373V1.16006H27.045V1.90137Z" fill="#F18014"/>
<path fill-rule="evenodd" clip-rule="evenodd" d="M28.1646 2.23535H27.791V1.8418H28.1646V2.23535Z" fill="#F18014"/>
<path fill-rule="evenodd" clip-rule="evenodd" d="M27.5734 2.8252H27.0996V2.32515H27.5734V2.8252Z" fill="#F18014"/>
<path fill-rule="evenodd" clip-rule="evenodd" d="M27.0462 3.89844H26.5078V3.33749H27.0462V3.89844Z" fill="#F18014"/>
<path fill-rule="evenodd" clip-rule="evenodd" d="M27.0462 5.67969H26.5078V5.11869H27.0462V5.67969Z" fill="#F18014"/>
<path fill-rule="evenodd" clip-rule="evenodd" d="M27.0993 7.77539H26.5527V7.1948H27.0993V7.77539Z" fill="#F18014"/>
<path fill-rule="evenodd" clip-rule="evenodd" d="M27.7093 7.77539H27.3359V7.3719H27.7093V7.77539Z" fill="#F18014"/>
<path fill-rule="evenodd" clip-rule="evenodd" d="M28.1282 7.12891H27.791V6.75183H28.1282V7.12891Z" fill="#F18014"/>
<path fill-rule="evenodd" clip-rule="evenodd" d="M27.6554 6.62305H27.1816V6.09175H27.6554V6.62305Z" fill="#F18014"/>
<path fill-rule="evenodd" clip-rule="evenodd" d="M28.1652 5.53125H27.8828V5.24591H28.1652V5.53125Z" fill="#F18014"/>
<path fill-rule="evenodd" clip-rule="evenodd" d="M27.7094 4.7041H27.2266V4.22199H27.7094V4.7041Z" fill="#F18014"/>
<path fill-rule="evenodd" clip-rule="evenodd" d="M28.2238 3.89844H27.8828V3.55392H28.2238V3.89844Z" fill="#F18014"/>
<path fill-rule="evenodd" clip-rule="evenodd" d="M25.4129 4.02637H24.5625V3.07186H25.4129V4.02637Z" fill="#292D6D"/>
<path fill-rule="evenodd" clip-rule="evenodd" d="M25.252 4.51758H25.999V3.7255H25.252V4.51758Z" fill="#292D6D"/>
<path fill-rule="evenodd" clip-rule="evenodd" d="M24.5215 5.89551H25.4145V4.98051H24.5215V5.89551Z" fill="#292D6D"/>
<path fill-rule="evenodd" clip-rule="evenodd" d="M25.3535 6.62305H26.0919V5.8948H25.3535V6.62305Z" fill="#292D6D"/>
<path fill-rule="evenodd" clip-rule="evenodd" d="M24.5635 6.84257V5.91022H23.6797V4.98036H24.5209V4.02586H23.6797V3.06164H22.8141V2.13673H23.6675V1.19842H22.8141H21.9273V3.07135H21.0527V8.74902H21.9273V7.77491H22.4621H22.8141H23.6675H23.6797H24.3691H24.5635H25.4139V6.84257H24.5635Z" fill="#292D6D"/>
<path fill-rule="evenodd" clip-rule="evenodd" d="M22.571 8.48633H22.1582V8.02709H22.571V8.48633Z" fill="#292D6D"/>
<path fill-rule="evenodd" clip-rule="evenodd" d="M23.3729 8.19824H23.0449V7.88344H23.3729V8.19824Z" fill="#292D6D"/>
<path fill-rule="evenodd" clip-rule="evenodd" d="M21.8422 2.96289H21.166V2.18896H21.8422V2.96289Z" fill="#292D6D"/>
<path fill-rule="evenodd" clip-rule="evenodd" d="M21.587 1.8418H21.2832V1.45796H21.587V1.8418Z" fill="#292D6D"/>
<path fill-rule="evenodd" clip-rule="evenodd" d="M16.5703 6.85978V7.77491H20.0689V8.74902H20.9557V7.77491V6.85978H16.5703Z" fill="#292D6D"/>
<path fill-rule="evenodd" clip-rule="evenodd" d="M15.4642 7.77539H14.9297V7.1948H15.4642V7.77539Z" fill="#292D6D"/>
<path fill-rule="evenodd" clip-rule="evenodd" d="M14.6266 7.77539H14.25V7.3719H14.6266V7.77539Z" fill="#292D6D"/>
<path fill-rule="evenodd" clip-rule="evenodd" d="M18.9278 8.19824H18.6484V7.88344H18.9278V8.19824Z" fill="#292D6D"/>
<path fill-rule="evenodd" clip-rule="evenodd" d="M19.8501 8.48633H19.4492V8.04024H19.8501V8.48633Z" fill="#292D6D"/>
<path fill-rule="evenodd" clip-rule="evenodd" d="M6.06125 24.2387C5.95946 24.2837 5.8068 24.3217 5.60336 24.3532C5.48806 24.3712 5.40648 24.3913 5.35876 24.4137C5.31094 24.4361 5.27414 24.469 5.24812 24.5123C5.2222 24.5554 5.20922 24.6034 5.20922 24.656C5.20922 24.7366 5.2375 24.804 5.29414 24.8578C5.3507 24.9116 5.43352 24.9386 5.54258 24.9386C5.65056 24.9386 5.74664 24.9131 5.8307 24.8622C5.91484 24.8111 5.97656 24.7412 6.0161 24.6527C6.04626 24.5844 6.06125 24.4832 6.06125 24.3498V24.2387ZM6.08461 24.9151C5.98069 25.0103 5.88086 25.0777 5.78476 25.117C5.68876 25.1561 5.58562 25.1758 5.47556 25.1758C5.29384 25.1758 5.15414 25.1279 5.05656 25.0319C4.95898 24.936 4.91016 24.8136 4.91016 24.6646C4.91016 24.5771 4.9286 24.4972 4.96548 24.4248C5.00226 24.3524 5.05056 24.2942 5.11032 24.2507C5.17 24.2067 5.23726 24.1737 5.31204 24.1513C5.36704 24.1358 5.45016 24.1203 5.56126 24.1059C5.78766 24.0768 5.9543 24.042 6.06125 24.0016C6.06225 23.9601 6.06281 23.9338 6.06281 23.9226C6.06281 23.7992 6.03634 23.7121 5.98344 23.6618C5.91172 23.5933 5.80532 23.5592 5.66414 23.5592C5.5322 23.5592 5.43476 23.584 5.37204 23.634C5.30914 23.6839 5.26266 23.7722 5.23266 23.8989L4.95844 23.8586C4.98336 23.7318 5.02438 23.6294 5.08148 23.5516C5.1386 23.4737 5.2211 23.4136 5.32914 23.3716C5.4372 23.3294 5.56226 23.3084 5.70462 23.3084C5.84578 23.3084 5.96056 23.3264 6.04875 23.3622C6.13703 23.3983 6.20195 23.4432 6.24351 23.4979C6.28499 23.5522 6.31405 23.6208 6.33077 23.7037C6.34007 23.7553 6.34475 23.8485 6.34475 23.9831V24.387C6.34475 24.6683 6.35069 24.8464 6.36265 24.9209C6.37461 24.9956 6.39819 25.0671 6.43351 25.1354H6.1407C6.11164 25.0728 6.09297 24.9993 6.08461 24.9151" fill="#292D6D"/>
<path fill-rule="evenodd" clip-rule="evenodd" d="M7.86382 25.1354V24.8732C7.73508 25.075 7.56008 25.1758 7.3389 25.1758C7.24132 25.1758 7.15022 25.1557 7.06546 25.1153C6.98086 25.075 6.91812 25.0242 6.87702 24.963C6.83608 24.9019 6.80718 24.827 6.79062 24.7384C6.77914 24.679 6.77344 24.5848 6.77344 24.4558V23.3488H7.0539V24.3398C7.0539 24.498 7.0596 24.6045 7.071 24.6593C7.08858 24.7391 7.126 24.8014 7.1832 24.8471C7.2403 24.8924 7.31086 24.9151 7.395 24.9151C7.47914 24.9151 7.55796 24.8917 7.63178 24.8453C7.70546 24.7989 7.75764 24.7353 7.78828 24.6552C7.81898 24.575 7.83422 24.4587 7.83422 24.3061V23.3488H8.1146V25.1354H7.86382" fill="#292D6D"/>
<path fill-rule="evenodd" clip-rule="evenodd" d="M8.74126 24.2439C8.74126 24.4727 8.78594 24.6435 8.87524 24.7569C8.96454 24.8701 9.06992 24.927 9.19148 24.927C9.31398 24.927 9.41812 24.8727 9.50376 24.7645C9.58946 24.6563 9.63226 24.4913 9.63226 24.269C9.63226 24.0245 9.58868 23.8452 9.50142 23.7307C9.41422 23.6164 9.30672 23.5592 9.17898 23.5592C9.05438 23.5592 8.95024 23.6141 8.86672 23.724C8.78306 23.834 8.74126 24.0072 8.74126 24.2439V24.2439ZM9.62758 25.1354V24.9101C9.52274 25.0873 9.36852 25.1758 9.165 25.1758C9.03312 25.1758 8.91188 25.1365 8.80126 25.058C8.6907 24.9797 8.605 24.8699 8.54422 24.7291C8.48352 24.5884 8.45312 24.4267 8.45312 24.2439C8.45312 24.0655 8.48062 23.9037 8.5357 23.7585C8.5907 23.6132 8.67328 23.5019 8.78336 23.4247C8.89344 23.3471 9.01648 23.3084 9.15258 23.3084C9.2522 23.3084 9.34102 23.3312 9.41892 23.3767C9.49672 23.422 9.56008 23.4813 9.60892 23.5541V22.6693H9.88774V25.1354H9.62758" fill="#292D6D"/>
<path fill-rule="evenodd" clip-rule="evenodd" d="M10.3301 25.1357V23.3492H10.6105V25.1357H10.3301ZM10.3301 23.0179V22.6697H10.6105V23.0179H10.3301" fill="#292D6D"/>
<path fill-rule="evenodd" clip-rule="evenodd" d="M14.0449 25.1357V22.6697H14.3253V25.1357H14.0449Z" fill="#292D6D"/>
<path fill-rule="evenodd" clip-rule="evenodd" d="M14.9714 24.0705H15.895C15.8826 23.9204 15.8473 23.8076 15.7891 23.7325C15.6999 23.6158 15.5841 23.5575 15.4417 23.5575C15.313 23.5575 15.2047 23.6039 15.117 23.697C15.0292 23.7901 14.9807 23.9148 14.9714 24.0705V24.0705ZM15.892 24.5602L16.1817 24.5988C16.1359 24.7816 16.0513 24.9235 15.9278 25.0243C15.8042 25.1254 15.6463 25.1758 15.4542 25.1758C15.2123 25.1758 15.0204 25.0955 14.8787 24.9346C14.7369 24.7736 14.666 24.5479 14.666 24.2574C14.666 23.9566 14.7377 23.7233 14.881 23.5575C15.0243 23.3916 15.2102 23.3084 15.4387 23.3084C15.6599 23.3084 15.8406 23.3899 15.9807 23.5523C16.1209 23.715 16.191 23.9439 16.191 24.2388C16.191 24.2567 16.1905 24.2837 16.1895 24.3195H14.9558C14.9662 24.5159 15.0176 24.666 15.11 24.7703C15.2024 24.8746 15.3177 24.927 15.4558 24.927C15.5586 24.927 15.6463 24.8978 15.7191 24.8395C15.7917 24.7812 15.8493 24.688 15.892 24.5602Z" fill="#292D6D"/>
<path fill-rule="evenodd" clip-rule="evenodd" d="M17.6124 24.4811L17.8881 24.5198C17.858 24.725 17.7808 24.8857 17.6569 25.0017C17.5326 25.1179 17.3803 25.1758 17.1997 25.1758C16.9732 25.1758 16.7912 25.0959 16.6537 24.936C16.5161 24.7763 16.4473 24.5472 16.4473 24.2489C16.4473 24.056 16.4769 23.8871 16.5361 23.7426C16.5952 23.5979 16.6853 23.4895 16.8063 23.4171C16.9273 23.3448 17.0589 23.3084 17.2012 23.3084C17.3808 23.3084 17.5277 23.3575 17.642 23.4557C17.7562 23.5538 17.8294 23.6931 17.8616 23.8737L17.5891 23.919C17.563 23.7992 17.5172 23.7089 17.4512 23.6484C17.3853 23.5878 17.3055 23.5575 17.2121 23.5575C17.0708 23.5575 16.9561 23.6121 16.8679 23.7214C16.7796 23.8308 16.7354 24.0037 16.7354 24.2405C16.7354 24.4804 16.778 24.6548 16.8632 24.7636C16.9483 24.8725 17.0594 24.927 17.1965 24.927C17.3066 24.927 17.3984 24.8904 17.4723 24.8174C17.5459 24.7446 17.5926 24.6326 17.6124 24.4811" fill="#292D6D"/>
<path fill-rule="evenodd" clip-rule="evenodd" d="M18.743 24.865L18.7834 25.1324C18.7044 25.1503 18.6339 25.1592 18.5716 25.1592C18.4698 25.1592 18.3909 25.142 18.3348 25.1071C18.2787 25.0724 18.2392 25.0265 18.2164 24.97C18.1936 24.9134 18.1822 24.7942 18.1822 24.6125V23.5848H17.9766V23.3491H18.1822V22.9067L18.461 22.7251V23.3491H18.743V23.5848H18.461V24.6293C18.461 24.7157 18.4659 24.7712 18.4758 24.7959C18.4856 24.8205 18.5017 24.8402 18.5241 24.8548C18.5464 24.8694 18.5784 24.8767 18.6199 24.8767C18.6511 24.8766 18.692 24.8728 18.743 24.865" fill="#292D6D"/>
<path fill-rule="evenodd" clip-rule="evenodd" d="M19.0137 25.1357V23.3492H19.266V23.6201C19.3303 23.4933 19.3899 23.4098 19.4444 23.3695C19.4989 23.3291 19.5588 23.3088 19.6243 23.3088C19.7188 23.3088 19.8149 23.3414 19.9124 23.4065L19.8159 23.6875C19.7474 23.6436 19.6788 23.6218 19.6102 23.6218C19.549 23.6218 19.494 23.6417 19.4452 23.6814C19.3963 23.7214 19.3615 23.7765 19.3408 23.8471C19.3096 23.9549 19.2941 24.0726 19.2941 24.2005V25.1357H19.0137Z" fill="#292D6D"/>
<path fill-rule="evenodd" clip-rule="evenodd" d="M20.2609 24.2423C20.2609 24.471 20.3071 24.6422 20.3995 24.7561C20.4919 24.8699 20.6083 24.927 20.7483 24.927C20.8877 24.927 21.0033 24.8697 21.0959 24.7552C21.1883 24.6409 21.2345 24.4664 21.2345 24.232C21.2345 24.0111 21.1879 23.8437 21.0949 23.7298C21.0021 23.616 20.8865 23.5592 20.7483 23.5592C20.6083 23.5592 20.4919 23.6158 20.3995 23.729C20.3071 23.8424 20.2609 24.0133 20.2609 24.2423V24.2423ZM19.9727 24.2423C19.9727 23.9113 20.0579 23.6664 20.2281 23.5069C20.3705 23.3747 20.5439 23.3084 20.7483 23.3084C20.9759 23.3084 21.1617 23.389 21.3061 23.5499C21.4505 23.7109 21.5227 23.9331 21.5227 24.2169C21.5227 24.4468 21.4907 24.6278 21.4269 24.7596C21.3629 24.8913 21.2699 24.9935 21.1481 25.0665C21.0259 25.1395 20.8927 25.1758 20.7483 25.1758C20.5169 25.1758 20.3297 25.0956 20.1869 24.9354C20.0441 24.7748 19.9727 24.544 19.9727 24.2423" fill="#292D6D"/>
<path fill-rule="evenodd" clip-rule="evenodd" d="M21.8535 25.1357V23.3492H22.1059V23.6032C22.2273 23.4071 22.4027 23.3088 22.6323 23.3088C22.7319 23.3088 22.8235 23.3283 22.9071 23.3669C22.9907 23.4056 23.0533 23.4563 23.0949 23.5192C23.1363 23.5821 23.1655 23.6566 23.1821 23.743C23.1925 23.7989 23.1977 23.8972 23.1977 24.0374V25.1357H22.9173V24.0491C22.9173 23.9257 22.9065 23.8335 22.8845 23.7723C22.8627 23.7112 22.8241 23.6624 22.7685 23.6259C22.7129 23.5896 22.6479 23.5713 22.5731 23.5713C22.4537 23.5713 22.3505 23.6123 22.2639 23.6942C22.1771 23.776 22.1339 23.9313 22.1339 24.16V25.1357H21.8535" fill="#292D6D"/>
<path fill-rule="evenodd" clip-rule="evenodd" d="M23.627 25.1357V23.3492H23.9074V25.1357H23.627ZM23.627 23.0179V22.6697H23.9074V23.0179H23.627Z" fill="#292D6D"/>
<path fill-rule="evenodd" clip-rule="evenodd" d="M25.413 24.4811L25.689 24.5198C25.6586 24.725 25.5816 24.8857 25.4574 25.0017C25.3334 25.1179 25.181 25.1758 25.0004 25.1758C24.7738 25.1758 24.592 25.0959 24.4544 24.936C24.3168 24.7763 24.248 24.5472 24.248 24.2489C24.248 24.056 24.2776 23.8871 24.3368 23.7426C24.396 23.5979 24.486 23.4895 24.607 23.4171C24.728 23.3448 24.8596 23.3084 25.0018 23.3084C25.1816 23.3084 25.3284 23.3575 25.4426 23.4557C25.5568 23.5538 25.6302 23.6931 25.6622 23.8737L25.3898 23.919C25.3638 23.7992 25.3178 23.7089 25.2518 23.6484C25.1862 23.5878 25.1062 23.5575 25.0128 23.5575C24.8716 23.5575 24.7568 23.6121 24.6686 23.7214C24.5802 23.8308 24.536 24.0037 24.536 24.2405C24.536 24.4804 24.5788 24.6548 24.664 24.7636C24.749 24.8725 24.86 24.927 24.9972 24.927C25.1072 24.927 25.1992 24.8904 25.2728 24.8174C25.3466 24.7446 25.3934 24.6326 25.413 24.4811" fill="#292D6D"/>
<path fill-rule="evenodd" clip-rule="evenodd" d="M2.81055 24.3434L3.09563 24.3166C3.10905 24.4399 3.14055 24.541 3.18985 24.6201C3.23913 24.6992 3.31577 24.763 3.41953 24.8119C3.52343 24.8607 3.64023 24.885 3.77007 24.885C3.88539 24.885 3.98711 24.8666 4.07531 24.8295C4.16359 24.7926 4.22929 24.7419 4.27241 24.6773C4.31555 24.6129 4.33703 24.5425 4.33703 24.4663C4.33703 24.3887 4.31625 24.3213 4.27469 24.2634C4.23321 24.2057 4.16469 24.1572 4.06913 24.1178C4.00789 24.0922 3.87235 24.0519 3.66257 23.9976C3.45281 23.9433 3.30593 23.8919 3.22179 23.8438C3.11273 23.7822 3.03149 23.7055 2.97797 23.6142C2.92445 23.5227 2.89773 23.4204 2.89773 23.3072C2.89773 23.1825 2.93047 23.0663 2.99593 22.9579C3.06133 22.8497 3.15687 22.7676 3.28257 22.7115C3.40821 22.6555 3.54789 22.6275 3.70149 22.6275C3.87077 22.6275 4.02007 22.6569 4.14937 22.7158C4.27867 22.7746 4.37805 22.8611 4.44765 22.9756C4.51719 23.0901 4.55461 23.2195 4.55977 23.3643L4.27007 23.3877C4.25453 23.232 4.20179 23.1141 4.11195 23.0346C4.02219 22.9549 3.88945 22.9151 3.71405 22.9151C3.53117 22.9151 3.39805 22.9512 3.31445 23.0236C3.23085 23.096 3.18905 23.1832 3.18905 23.2852C3.18905 23.3737 3.21867 23.4468 3.27781 23.504C3.33601 23.561 3.48789 23.6198 3.73351 23.6796C3.97899 23.7396 4.14749 23.7921 4.23899 23.837C4.37187 23.9032 4.46999 23.987 4.53335 24.0885C4.59671 24.19 4.62827 24.3068 4.62827 24.4393C4.62827 24.5704 4.59359 24.6942 4.52399 24.8101C4.45437 24.9264 4.35445 25.0167 4.22413 25.081C4.09375 25.1456 3.94711 25.1777 3.78413 25.1777C3.57741 25.1777 3.40429 25.1452 3.26461 25.0801C3.12491 25.0151 3.01531 24.9173 2.93593 24.7866C2.85649 24.6559 2.81469 24.5081 2.81055 24.3434" fill="#F18014"/>
<path fill-rule="evenodd" clip-rule="evenodd" d="M11.9648 25.1357V22.6697H13.616V22.9606H12.267V23.716H13.5304V24.0052H12.267V24.8448H13.669V25.1357H11.9648" fill="#F18014"/>
<path fill-rule="evenodd" clip-rule="evenodd" d="M28.3495 22.6696H28.6517V24.0943C28.6517 24.3423 28.6257 24.5391 28.5737 24.6849C28.5217 24.8306 28.4281 24.9492 28.2925 25.0406C28.1571 25.1322 27.9793 25.1777 27.7591 25.1777C27.5451 25.1777 27.3701 25.138 27.2341 25.0583C27.0981 24.9788 27.0011 24.8634 26.9429 24.7127C26.8847 24.5617 26.8555 24.3557 26.8555 24.0943V22.6696H27.1579V24.0928C27.1579 24.3068 27.1763 24.4648 27.2131 24.5663C27.2499 24.6678 27.3133 24.746 27.4031 24.8011C27.4929 24.8559 27.6027 24.8834 27.7325 24.8834C27.9549 24.8834 28.1131 24.8289 28.2077 24.7203C28.3021 24.6114 28.3495 24.4023 28.3495 24.0928V22.6696" fill="#F18014"/>
<path fill-rule="evenodd" clip-rule="evenodd" d="M29.1211 25.1357V23.3492H29.3735V23.6032C29.4949 23.4071 29.6705 23.3088 29.8999 23.3088C29.9997 23.3088 30.0913 23.3283 30.1749 23.3669C30.2585 23.4056 30.3211 23.4563 30.3625 23.5192C30.4041 23.5821 30.4331 23.6566 30.4497 23.743C30.4601 23.7989 30.4653 23.8972 30.4653 24.0374V25.1357H30.1849V24.0491C30.1849 23.9257 30.1741 23.8335 30.1523 23.7723C30.1305 23.7112 30.0917 23.6624 30.0363 23.6259C29.9807 23.5896 29.9155 23.5713 29.8407 23.5713C29.7213 23.5713 29.6183 23.6123 29.5315 23.6942C29.4449 23.776 29.4015 23.9313 29.4015 24.16V25.1357H29.1211" fill="#292D6D"/>
<path fill-rule="evenodd" clip-rule="evenodd" d="M30.8965 25.1357V23.3492H31.1769V25.1357H30.8965ZM30.8965 23.0179V22.6697H31.1769V23.0179H30.8965Z" fill="#292D6D"/>
<path fill-rule="evenodd" clip-rule="evenodd" d="M32.0628 25.1357L31.4336 23.3492H31.7296L32.0846 24.4193C32.123 24.5346 32.1584 24.6547 32.1906 24.7792C32.2156 24.685 32.2504 24.5718 32.295 24.4394L32.6626 23.3492H32.9508L32.3246 25.1357H32.0628" fill="#292D6D"/>
<path fill-rule="evenodd" clip-rule="evenodd" d="M33.4107 24.0705H34.3345C34.3221 23.9204 34.2867 23.8076 34.2285 23.7325C34.1393 23.6158 34.0235 23.5575 33.8813 23.5575C33.7523 23.5575 33.6441 23.6039 33.5565 23.697C33.4687 23.7901 33.4201 23.9148 33.4107 24.0705V24.0705ZM34.3315 24.5602L34.6211 24.5988C34.5753 24.7816 34.4907 24.9235 34.3673 25.0243C34.2439 25.1254 34.0857 25.1758 33.8937 25.1758C33.6517 25.1758 33.4599 25.0955 33.3183 24.9346C33.1765 24.7736 33.1055 24.5479 33.1055 24.2574C33.1055 23.9566 33.1771 23.7233 33.3205 23.5575C33.4637 23.3916 33.6495 23.3084 33.8781 23.3084C34.0993 23.3084 34.2799 23.3899 34.4201 23.5523C34.5603 23.715 34.6305 23.9439 34.6305 24.2388C34.6305 24.2567 34.6299 24.2837 34.6289 24.3195H33.3953C33.4057 24.5159 33.4569 24.666 33.5495 24.7703C33.6419 24.8746 33.7571 24.927 33.8951 24.927C33.9981 24.927 34.0857 24.8978 34.1585 24.8395C34.2311 24.7812 34.2887 24.688 34.3315 24.5602Z" fill="#292D6D"/>
<path fill-rule="evenodd" clip-rule="evenodd" d="M34.9688 25.1357V23.3492H35.221V23.6201C35.2854 23.4933 35.345 23.4098 35.3994 23.3695C35.454 23.3291 35.5138 23.3088 35.5794 23.3088C35.6738 23.3088 35.7698 23.3414 35.8674 23.4065L35.771 23.6875C35.7024 23.6436 35.6338 23.6218 35.5652 23.6218C35.504 23.6218 35.449 23.6417 35.4002 23.6814C35.3514 23.7214 35.3166 23.7765 35.2958 23.8471C35.2646 23.9549 35.249 24.0726 35.249 24.2005V25.1357H34.9688" fill="#292D6D"/>
<path fill-rule="evenodd" clip-rule="evenodd" d="M35.9238 24.602L36.201 24.5549C36.2166 24.6751 36.2602 24.7671 36.331 24.831C36.4022 24.895 36.5016 24.927 36.6294 24.927C36.7584 24.927 36.8538 24.8986 36.916 24.8418C36.9784 24.7853 37.0094 24.719 37.0094 24.6424C37.0094 24.5742 36.982 24.5202 36.927 24.4811C36.8884 24.4541 36.793 24.4199 36.6404 24.3785C36.4348 24.3223 36.2922 24.274 36.2128 24.2329C36.1332 24.1919 36.073 24.1354 36.032 24.063C35.991 23.9906 35.9706 23.9107 35.9706 23.8234C35.9706 23.7437 35.9874 23.6698 36.0212 23.602C36.0548 23.5342 36.1008 23.4778 36.159 23.4331C36.2026 23.3983 36.262 23.3687 36.3374 23.3448C36.4126 23.3205 36.4934 23.3084 36.5796 23.3084C36.7094 23.3084 36.8234 23.3287 36.9214 23.3691C37.0196 23.4095 37.092 23.464 37.1388 23.5331C37.1854 23.602 37.2176 23.6942 37.2354 23.8097L36.9612 23.8502C36.9488 23.7581 36.9126 23.6865 36.853 23.6348C36.7932 23.5832 36.7088 23.5575 36.5998 23.5575C36.471 23.5575 36.3792 23.5804 36.3242 23.6264C36.269 23.6724 36.2416 23.7262 36.2416 23.788C36.2416 23.8273 36.253 23.8625 36.2758 23.894C36.2988 23.9264 36.3344 23.9534 36.3832 23.9746C36.4116 23.9858 36.494 24.0117 36.631 24.0522C36.8294 24.1092 36.9676 24.156 37.046 24.1926C37.1244 24.2291 37.186 24.2819 37.2306 24.3515C37.2754 24.421 37.2976 24.5074 37.2976 24.6105C37.2976 24.7116 37.2704 24.8066 37.2158 24.8957C37.1616 24.9848 37.0826 25.0539 36.98 25.1025C36.877 25.1513 36.7608 25.1758 36.631 25.1758C36.4162 25.1758 36.2522 25.1276 36.1396 25.031C36.027 24.9347 35.955 24.7917 35.9238 24.602" fill="#292D6D"/>
<path fill-rule="evenodd" clip-rule="evenodd" d="M37.6309 25.1357V23.3492H37.9113V25.1357H37.6309ZM37.6309 23.0179V22.6697H37.9113V23.0179H37.6309Z" fill="#292D6D"/>
<path fill-rule="evenodd" clip-rule="evenodd" d="M38.95 24.865L38.9904 25.1324C38.9114 25.1503 38.8408 25.1592 38.7786 25.1592C38.6768 25.1592 38.5978 25.142 38.5418 25.1071C38.4858 25.0724 38.4462 25.0265 38.4234 24.97C38.4006 24.9134 38.3892 24.7942 38.3892 24.6125V23.5848H38.1836V23.3491H38.3892V22.9067L38.6682 22.7251V23.3491H38.95V23.5848H38.6682V24.6293C38.6682 24.7157 38.6732 24.7712 38.6828 24.7959C38.6928 24.8205 38.7088 24.8402 38.731 24.8548C38.7534 24.8694 38.7854 24.8767 38.8268 24.8767C38.858 24.8766 38.899 24.8728 38.95 24.865" fill="#292D6D"/>
<path fill-rule="evenodd" clip-rule="evenodd" d="M39.2128 25.8244L39.1816 25.5399C39.243 25.5581 39.2964 25.5669 39.342 25.5669C39.4044 25.5669 39.4542 25.5556 39.4916 25.5334C39.529 25.511 39.5596 25.4794 39.5836 25.439C39.6012 25.4088 39.6298 25.3336 39.6692 25.2137C39.6744 25.197 39.6828 25.1723 39.6942 25.1397L39.0664 23.3496H39.3686L39.713 24.3843C39.7574 24.5156 39.7974 24.6535 39.8328 24.7981C39.865 24.6591 39.9034 24.5234 39.948 24.3911L40.3016 23.3496H40.582L39.953 25.1667C39.8854 25.3628 39.8328 25.498 39.7954 25.5721C39.7456 25.6719 39.6884 25.7451 39.624 25.7915C39.5596 25.838 39.4828 25.8613 39.3936 25.8613C39.3396 25.8613 39.2792 25.849 39.2128 25.8244" fill="#292D6D"/>
<path fill-rule="evenodd" clip-rule="evenodd" d="M24.1415 20.2342C24.1963 20.0789 24.2381 19.9843 24.2609 19.8849C24.2719 19.8374 24.2593 19.7439 24.2357 19.7345C24.1777 19.7113 24.1033 19.7115 24.0433 19.7307C24.0233 19.737 24.0119 19.8339 24.0231 19.8823C24.0463 19.9824 24.0873 20.0774 24.1415 20.2342V20.2342ZM22.7027 20.1244C22.7027 19.985 22.7111 19.8443 22.6979 19.7063C22.6935 19.6607 22.6347 19.586 22.5993 19.5849C22.3715 19.5771 22.1297 19.8641 22.1247 20.1322C22.1203 20.3705 22.3621 20.6554 22.5791 20.6489C22.6211 20.6476 22.6903 20.5714 22.6965 20.5221C22.7131 20.3918 22.7021 20.2573 22.7027 20.1244V20.1244ZM22.6235 21.2136C22.5253 21.177 22.4465 21.1433 22.3655 21.118C21.9437 20.9869 21.6679 20.5934 21.6699 20.1225C21.6717 19.6519 21.9659 19.2199 22.3825 19.1151C22.5777 19.0658 22.7831 19.0572 22.9847 19.0473C23.1311 19.0401 23.1875 19.1419 23.1863 19.2946C23.1831 19.689 23.1909 20.0836 23.1815 20.4778C23.1781 20.6204 23.2213 20.6634 23.3487 20.6672C23.7763 20.6806 23.7781 20.6815 23.6411 20.2486C23.5531 19.9709 23.4637 19.6934 23.3811 19.4136C23.3257 19.2276 23.3555 19.1815 23.5377 19.1844C23.9521 19.1913 24.3659 19.2078 24.7799 19.2188C24.9403 19.2231 24.9457 19.3201 24.9041 19.4495C24.7947 19.7901 24.6911 20.1331 24.5741 20.4707C24.5233 20.6172 24.5581 20.6666 24.6967 20.6655C25.2357 20.6614 25.1461 20.7161 25.1539 20.1989C25.1563 20.0452 25.1619 19.891 25.1525 19.7378C25.1411 19.5527 25.2141 19.4929 25.3811 19.4933C25.5535 19.4935 25.6115 19.5693 25.6059 19.7464C25.5981 19.9869 25.6071 20.2277 25.6033 20.4684C25.6011 20.5984 25.6387 20.6668 25.7723 20.6666C25.9087 20.6664 25.9387 20.5908 25.9379 20.4642C25.9347 20.1233 25.9435 19.782 25.9345 19.4414C25.9295 19.2469 26.0069 19.1821 26.1777 19.1821C26.3531 19.1821 26.4229 19.2629 26.4197 19.4489C26.4143 19.7696 26.4171 20.0905 26.4193 20.4113C26.4201 20.5272 26.3917 20.6705 26.5715 20.6625C26.7401 20.6549 26.6807 20.5174 26.6815 20.4234C26.6849 20.0825 26.6847 19.7415 26.6793 19.4006C26.6767 19.2372 26.7067 19.1285 26.8915 19.1357C27.0915 19.1432 27.1567 19.1886 27.1617 19.3983C27.1693 19.719 27.1627 20.0401 27.1667 20.3608C27.1703 20.6448 27.3491 20.7727 27.5925 20.6511C27.6405 20.6271 27.6715 20.5107 27.6721 20.4364C27.6781 19.7345 27.6753 19.0325 27.6761 18.3308C27.6761 18.0643 27.7011 18.0465 27.9375 18.0496C28.1039 18.0517 28.1283 18.153 28.1279 18.2974C28.1259 18.9256 28.1241 19.554 28.1289 20.1823C28.1305 20.409 28.1573 20.6353 28.1611 20.8619C28.1657 21.1414 28.1177 21.1895 27.8605 21.1895C26.3749 21.1887 24.8895 21.1895 23.4039 21.1817C23.2293 21.1807 23.1279 21.2179 23.0563 21.4138C22.9083 21.8194 22.6063 22.0414 22.2093 22.1007C22.1067 22.1159 21.9613 22.1451 21.9517 21.9646C21.9441 21.8188 21.8911 21.6388 22.1285 21.604C22.3329 21.5743 22.5201 21.4803 22.6235 21.2136" fill="#292D6D"/>
<path fill-rule="evenodd" clip-rule="evenodd" d="M32.4724 20.1981C32.486 20.1981 32.4994 20.1981 32.513 20.1981C32.5394 20.1178 32.5736 20.0394 32.59 19.9566C32.6048 19.8809 32.6004 19.8007 32.6044 19.7225C32.5194 19.7225 32.4344 19.7225 32.3306 19.7225C32.3868 19.9109 32.4296 20.0545 32.4724 20.1981V20.1981ZM34.625 20.117C34.6254 20.117 34.6258 20.117 34.6262 20.117C34.6262 19.9906 34.6286 19.864 34.6256 19.7374C34.6212 19.5577 34.5738 19.5225 34.4216 19.5796C34.1888 19.6668 34.0486 19.8698 34.0504 20.1171C34.0516 20.2833 34.293 20.6057 34.4548 20.6514C34.5584 20.6807 34.625 20.6451 34.625 20.5166C34.625 20.3833 34.625 20.2503 34.625 20.117ZM30.6168 20.1844C30.6176 20.1844 30.6184 20.1844 30.6188 20.1844C30.6188 20.0774 30.6136 19.9705 30.6198 19.864C30.6312 19.6733 30.5352 19.6217 30.3796 19.625C30.1992 19.6286 30.0944 19.7405 30.0292 19.9031C29.94 20.1251 29.961 20.3559 30.1184 20.5157C30.2194 20.6179 30.3888 20.6445 30.5312 20.6911C30.5466 20.6961 30.6084 20.6112 30.6128 20.5641C30.6248 20.4386 30.6168 20.3111 30.6168 20.1844V20.1844ZM32.1398 20.7075C32.0162 20.3129 31.908 19.9671 31.7992 19.6217C31.6478 19.1413 31.6388 19.1826 32.0834 19.1826C32.4174 19.1826 32.7516 19.1815 33.0856 19.186C33.2868 19.1888 33.314 19.2348 33.2486 19.4417C33.1216 19.845 32.9932 20.2476 32.8552 20.682C33.1634 20.682 33.4446 20.682 33.7418 20.682C33.7284 20.6388 33.7252 20.6043 33.709 20.5801C33.414 20.142 33.6086 19.332 34.2834 19.1104C34.4686 19.0495 34.671 19.0451 34.8666 19.0268C35.0018 19.0141 35.0748 19.0933 35.0748 19.2431C35.0748 19.8312 35.0748 20.4191 35.0748 21.0073C35.0748 21.1315 35.016 21.1907 34.9024 21.1909C34.8284 21.1911 34.754 21.1944 34.6796 21.1944C33.269 21.1946 31.8578 21.1883 30.447 21.1982C30.0162 21.2013 29.7724 20.9358 29.6016 20.5686C29.4318 20.2034 29.481 19.8379 29.7034 19.5098C29.8984 19.2221 30.155 19.0688 30.5012 19.1054C30.6254 19.1185 30.7544 19.0717 30.8818 19.0581C31.0404 19.0411 31.1044 19.1236 31.1022 19.2942C31.0972 19.6884 31.1064 20.0829 31.0986 20.4771C31.095 20.6514 31.1544 20.7159 31.3152 20.7101C31.5774 20.7006 31.8404 20.7075 32.1398 20.7075" fill="#292D6D"/>
<path fill-rule="evenodd" clip-rule="evenodd" d="M12.2114 20.6595C12.5062 20.6595 12.7713 20.6657 13.0357 20.6533C13.0777 20.6511 13.1513 20.5645 13.1514 20.517C13.1526 19.802 13.1424 19.087 13.1393 18.3721C13.1389 18.2771 13.137 18.1192 13.1796 18.0992C13.2791 18.0524 13.4065 18.0598 13.5199 18.0722C13.5524 18.0758 13.5994 18.1716 13.6004 18.226C13.6186 19.1209 13.6319 20.0158 13.6426 20.9109C13.6447 21.088 13.5543 21.1879 13.3884 21.1837C13.0919 21.1764 12.7958 21.1513 12.4994 21.1501C11.4346 21.1459 10.3697 21.1507 9.30497 21.1459C9.14599 21.1454 9.05715 21.169 9.00887 21.3716C8.87341 21.9401 8.55239 22.2248 8.05309 22.2836C7.95599 22.2949 7.86801 22.318 7.84575 22.1675C7.81099 21.9324 7.85021 21.8192 8.00419 21.7924C8.28271 21.7441 8.47527 21.5888 8.54113 21.2881C8.57355 21.14 8.58863 20.9837 8.58731 20.8313C8.58411 20.4644 8.56239 20.0977 8.55645 19.7307C8.55215 19.4698 8.69989 19.3519 8.92855 19.4433C8.98091 19.4642 9.03113 19.5702 9.03481 19.64C9.04785 19.8865 9.04997 20.1351 9.03731 20.3816C9.02715 20.5796 9.10059 20.642 9.27489 20.6306C9.39707 20.6225 9.52145 20.6422 9.64419 20.6558C9.75043 20.6675 9.81207 20.6333 9.81027 20.5068C9.80637 20.2262 9.81997 19.9439 9.79605 19.6655C9.78191 19.5011 9.83051 19.4454 9.96677 19.4308C10.1694 19.4089 10.2497 19.4573 10.2572 19.6316C10.2651 19.8184 10.26 20.006 10.2605 20.1932C10.2622 20.7107 10.2231 20.6699 10.6858 20.6587C10.9744 20.6516 11.2634 20.6182 11.5494 20.5742C11.6296 20.5619 11.7156 20.4843 11.7708 20.4118C11.977 20.1405 11.9266 19.5366 11.6883 19.3C11.4924 19.1056 11.3158 19.1033 11.1122 19.2936C11.0795 19.324 11.0496 19.3581 11.0176 19.3897C10.8326 19.5713 10.7956 19.567 10.6333 19.3588C10.5466 19.2475 10.5164 19.1685 10.6494 19.0495C11.0638 18.6791 11.4671 18.2936 11.8659 17.9038C12.0623 17.7117 12.1163 17.9362 12.2138 18.0243C12.3286 18.1282 12.2554 18.2013 12.1703 18.2792C12.0302 18.4077 11.8985 18.5469 11.7497 18.6947C12.4147 19.2008 12.518 19.8568 12.2114 20.6595" fill="#292D6D"/>
<path fill-rule="evenodd" clip-rule="evenodd" d="M37.5288 21.2107C36.867 21.2107 36.205 21.2069 35.5432 21.2138C35.3972 21.2154 35.378 21.1274 35.3764 21.0124C35.3734 20.7652 35.3746 20.5179 35.3742 20.2705C35.3734 19.6154 35.3774 18.9605 35.3692 18.3056C35.367 18.1169 35.4222 18.0397 35.6032 18.0492C35.8344 18.0613 35.8554 18.0693 35.8558 18.3044C35.857 19.0194 35.8556 19.7344 35.8566 20.4497C35.857 20.6967 35.8674 20.711 36.1 20.7071C36.6808 20.6971 37.2618 20.6831 37.8426 20.6691C38.0256 20.6646 38.0456 20.6244 37.9658 20.4371C37.7724 19.9815 37.1858 19.7768 36.719 20.0016C36.5476 20.0841 36.3594 19.9971 36.321 19.7943C36.3106 19.7388 36.3766 19.6344 36.4322 19.6014C36.9028 19.3223 37.3826 19.3377 37.8494 19.6051C38.1812 19.7949 38.4066 20.0872 38.4676 20.503C38.485 20.622 38.5502 20.6738 38.6612 20.67C38.7786 20.666 38.8964 20.6658 39.0138 20.67C39.1358 20.6742 39.1698 20.6157 39.1684 20.4867C39.1624 19.7785 39.1642 19.07 39.1642 18.3615C39.1644 18.0777 39.3136 17.9578 39.553 18.0706C39.6052 18.095 39.6424 18.219 39.6432 18.2978C39.6514 19.0596 39.6502 19.8215 39.6516 20.5836C39.6518 20.7039 39.646 20.8244 39.6528 20.9443C39.6634 21.1266 39.5884 21.1938 39.4224 21.1924C38.7912 21.1873 38.16 21.1902 37.5288 21.1902C37.5288 21.1972 37.5288 21.2039 37.5288 21.2107" fill="#292D6D"/>
<path fill-rule="evenodd" clip-rule="evenodd" d="M3.50104 20.314C3.50104 20.2209 3.50238 20.1278 3.50082 20.0349C3.49596 19.7487 3.32355 19.648 3.09411 19.7993C2.92707 19.9094 2.83715 20.0833 2.85761 20.2841C2.88129 20.5157 2.98411 20.7201 3.20433 20.8087C3.40739 20.8905 3.49918 20.8123 3.50112 20.5729C3.50182 20.4865 3.50128 20.4001 3.50104 20.314V20.314ZM4.64268 21.3465C4.21574 21.3466 3.78894 21.3471 3.36206 21.3465C2.69333 21.3455 2.18965 20.515 2.46589 19.8591C2.62911 19.4713 2.88067 19.2212 3.31346 19.2502C3.45652 19.2596 3.60252 19.2007 3.74832 19.1847C3.9116 19.1667 3.9855 19.2549 3.98386 19.4331C3.98018 19.8206 3.98862 20.2083 3.98082 20.5956C3.9773 20.7691 4.03424 20.8397 4.19612 20.8287C4.3441 20.8185 4.49308 20.822 4.64144 20.8276C4.7673 20.8324 4.81402 20.785 4.81026 20.6403C4.80026 20.2532 4.80924 19.8656 4.8044 19.4781C4.80206 19.2944 4.86612 19.2147 5.0455 19.2139C5.22738 19.213 5.26276 19.3061 5.26002 19.4744C5.25362 19.8551 5.26268 20.2362 5.25596 20.6168C5.25324 20.7719 5.30386 20.8284 5.44924 20.8295C5.80246 20.8319 5.80246 20.8382 5.80246 20.4481C5.80252 20.1075 5.80792 19.7664 5.80066 19.426C5.7966 19.2368 5.8823 19.1836 6.03972 19.183C6.19738 19.1822 6.28612 19.2376 6.2851 19.4234C6.28214 19.9781 6.28308 20.5325 6.28402 21.087C6.28432 21.2698 6.20956 21.3512 6.03456 21.3486C5.57066 21.3419 5.10668 21.3465 4.64268 21.3465Z" fill="#292D6D"/>
<path fill-rule="evenodd" clip-rule="evenodd" d="M17.9892 20.1628C17.9892 20.0694 18.0001 19.9742 17.9861 19.8834C17.972 19.7932 17.9476 19.645 17.9017 19.6323C17.8005 19.6044 17.6639 19.6109 17.5759 19.6662C17.4121 19.7691 17.3359 19.9519 17.3621 20.1623C17.3882 20.3718 17.4861 20.542 17.6643 20.636C17.8634 20.741 17.9862 20.6546 17.9889 20.4226C17.99 20.336 17.9891 20.2493 17.9892 20.1628V20.1628ZM18.5987 21.1885C18.3576 21.1885 18.1163 21.1831 17.8753 21.1896C17.4405 21.2015 17.1729 20.9391 16.9882 20.5545C16.7197 19.9955 17.0299 19.386 17.3853 19.1862C17.4291 19.1618 17.4734 19.1288 17.5201 19.1216C17.7627 19.0853 18.0059 19.0516 18.2496 19.0259C18.4027 19.0097 18.4748 19.0888 18.4726 19.2623C18.4673 19.6562 18.4748 20.0502 18.4703 20.4442C18.4685 20.6038 18.5209 20.6716 18.6765 20.6678C19.3124 20.652 19.2041 20.7574 19.2144 20.1053C19.2179 19.8783 19.2184 19.6511 19.2146 19.4242C19.2115 19.238 19.3027 19.1828 19.4597 19.1832C19.617 19.1834 19.7008 19.2361 19.6983 19.4258C19.6916 19.9264 19.6931 20.4274 19.6975 20.928C19.6991 21.1155 19.6245 21.1948 19.4519 21.1913C19.1676 21.1855 18.8831 21.1898 18.5987 21.1898C18.5987 21.1893 18.5987 21.1889 18.5987 21.1885" fill="#292D6D"/>
<path fill-rule="evenodd" clip-rule="evenodd" d="M7.48358 20.3158C7.4813 20.3158 7.47912 20.3158 7.47694 20.3158C7.47694 20.1755 7.4778 20.0351 7.47662 19.895C7.4756 19.7694 7.41662 19.7308 7.30686 19.7621C7.0888 19.8244 6.9156 20.0717 6.92294 20.3151C6.92952 20.529 7.11818 20.7644 7.32232 20.8119C7.42474 20.8356 7.49294 20.8158 7.48498 20.6762C7.4781 20.5566 7.48358 20.4359 7.48358 20.3158V20.3158ZM7.40342 21.3798C7.3113 21.3435 7.23866 21.3113 7.16412 21.2858C6.681 21.121 6.44084 20.7186 6.44944 20.3013C6.4592 19.8192 6.67888 19.4273 7.1903 19.2781C7.38764 19.2206 7.60294 19.2232 7.8099 19.2245C7.86022 19.225 7.95358 19.3291 7.95326 19.385C7.94966 20.0382 7.96194 20.6942 7.90826 21.3435C7.86616 21.8543 7.40592 22.2541 6.9506 22.2717C6.84396 22.2755 6.74044 22.2712 6.73928 22.1201C6.73818 21.9833 6.6828 21.8148 6.8938 21.7783C7.1081 21.7414 7.29466 21.6487 7.40342 21.3798" fill="#292D6D"/>
<path fill-rule="evenodd" clip-rule="evenodd" d="M15.4605 19.6373C15.4605 20.0716 15.462 20.5058 15.46 20.9402C15.4588 21.1898 15.4227 21.2277 15.187 21.2287C14.8282 21.2307 14.4693 21.2233 14.1107 21.2313C13.9234 21.2355 13.9023 21.1223 13.9023 20.962C13.9024 20.8063 13.9309 20.7012 14.105 20.7073C14.3151 20.7145 14.5256 20.7095 14.7359 20.7081C14.9697 20.7071 14.9781 20.6987 14.9788 20.4505C14.9808 19.7491 14.9812 19.0476 14.9831 18.346C14.9838 18.083 15.1717 17.9492 15.3852 18.0732C15.4316 18.0999 15.4598 18.205 15.4608 18.2745C15.4674 18.7285 15.4641 19.183 15.4641 19.6373C15.463 19.6373 15.4617 19.6373 15.4605 19.6373Z" fill="#292D6D"/>
<path fill-rule="evenodd" clip-rule="evenodd" d="M20.5305 20.6894C20.6617 20.6624 20.8055 20.6632 20.9213 20.6021C21.1315 20.4911 21.1943 20.0852 21.0627 19.831C20.9293 19.5729 20.6557 19.4605 20.4311 19.6163C20.2457 19.7451 20.1493 19.6705 20.0321 19.5267C19.9431 19.4176 19.9563 19.3383 20.0567 19.2623C20.3425 19.0453 20.6439 18.9675 20.9823 19.1201C21.3203 19.2728 21.5273 19.5468 21.5843 19.9243C21.6789 20.5481 21.3873 21.0527 20.8725 21.1637C20.6697 21.2074 20.4537 21.1901 20.2443 21.183C20.0897 21.1779 20.1105 21.0367 20.1099 20.9257C20.1093 20.8136 20.0935 20.6831 20.2483 20.6711C20.3407 20.6639 20.4337 20.6697 20.5265 20.6697C20.5279 20.6762 20.5293 20.6829 20.5305 20.6894" fill="#292D6D"/>
<path fill-rule="evenodd" clip-rule="evenodd" d="M29.1377 19.5888C29.1377 20.0157 29.1321 20.4425 29.1405 20.8691C29.1441 21.053 29.0797 21.1186 28.9122 21.1129C28.7612 21.1078 28.6473 21.0985 28.6487 20.8823C28.6543 20.0155 28.6545 19.1487 28.6485 18.2818C28.6471 18.0678 28.7564 18.0524 28.9098 18.0492C29.0727 18.0455 29.1451 18.0987 29.1409 18.2885C29.1311 18.7219 29.1377 19.1554 29.1377 19.5888" fill="#292D6D"/>
<path fill-rule="evenodd" clip-rule="evenodd" d="M40.6539 19.5832C40.6539 20.0175 40.6489 20.4521 40.6563 20.8863C40.6593 21.0684 40.5827 21.1146 40.4303 21.1122C40.2839 21.11 40.1953 21.0748 40.1961 20.8902C40.1999 20.0147 40.2017 19.1393 40.1953 18.2639C40.1933 18.0308 40.3287 18.0565 40.4675 18.0503C40.6103 18.0442 40.6621 18.0984 40.6585 18.2602C40.6485 18.701 40.6551 19.1422 40.6551 19.5832C40.6549 19.5832 40.6543 19.5832 40.6539 19.5832" fill="#292D6D"/>
<path fill-rule="evenodd" clip-rule="evenodd" d="M16.0123 19.5868C16.0123 19.1531 16.0171 18.7194 16.0099 18.2861C16.0071 18.1148 16.062 18.0476 16.2243 18.0489C16.3822 18.05 16.4647 18.0923 16.4636 18.2839C16.4584 19.1512 16.459 20.0184 16.4631 20.8856C16.4639 21.0644 16.3882 21.1129 16.2357 21.1133C16.0838 21.1137 16.007 21.0692 16.01 20.8876C16.0173 20.4541 16.0124 20.0204 16.0123 19.5868" fill="#292D6D"/>
<path fill-rule="evenodd" clip-rule="evenodd" d="M14.6107 19.4235C14.6105 19.7236 14.6045 20.0241 14.6126 20.3242C14.6181 20.5248 14.5141 20.5486 14.3651 20.5516C14.2079 20.5546 14.1229 20.5108 14.125 20.3179C14.1316 19.7174 14.1321 19.1169 14.1252 18.5167C14.1227 18.2953 14.245 18.2968 14.3922 18.2926C14.5482 18.2883 14.6183 18.3448 14.6132 18.5229C14.6045 18.8229 14.6107 19.1234 14.6107 19.4235" fill="#292D6D"/>
<path fill-rule="evenodd" clip-rule="evenodd" d="M4.27159 21.9539C3.93377 21.9563 3.89729 21.9125 3.90775 21.6592C3.91337 21.5232 3.97095 21.468 4.09221 21.469C4.31369 21.4711 4.53517 21.4735 4.75651 21.4681C4.91939 21.4643 4.95017 21.5634 4.95001 21.7118C4.94971 21.8608 4.91565 21.9589 4.75447 21.955C4.56393 21.9503 4.37331 21.9539 4.27159 21.9539" fill="#292D6D"/>
<path fill-rule="evenodd" clip-rule="evenodd" d="M17.8061 18.529C17.8053 18.7894 17.7776 18.819 17.5591 18.8183C17.3459 18.8177 17.3164 18.7844 17.3185 18.5475C17.3204 18.3233 17.3475 18.3067 17.5781 18.2957C17.7591 18.2872 17.8334 18.3621 17.8061 18.529" fill="#292D6D"/>
<path fill-rule="evenodd" clip-rule="evenodd" d="M18.1144 18.2988C18.3171 18.3003 18.3572 18.3424 18.3546 18.5518C18.3519 18.7652 18.2993 18.8196 18.0973 18.8183C17.8962 18.8168 17.8646 18.7779 17.8673 18.5349C17.8698 18.3183 17.8917 18.2973 18.1144 18.2988Z" fill="#292D6D"/>
<path fill-rule="evenodd" clip-rule="evenodd" d="M5.43398 18.9032C5.28376 18.9288 5.20196 18.8575 5.20946 18.6596C5.21782 18.4399 5.2536 18.3873 5.43812 18.3831C5.6386 18.3788 5.69352 18.4359 5.695 18.6498C5.69648 18.8663 5.66296 18.9018 5.43398 18.9032" fill="#292D6D"/>
<path fill-rule="evenodd" clip-rule="evenodd" d="M18.6772 21.311C18.8411 21.2862 18.9306 21.3337 18.9294 21.5434C18.9281 21.7398 18.8603 21.7993 18.6874 21.7968C18.526 21.7944 18.4307 21.7615 18.4316 21.5546C18.4325 21.3598 18.5012 21.2812 18.6772 21.311" fill="#292D6D"/>
<path fill-rule="evenodd" clip-rule="evenodd" d="M9.21573 19.1034C9.05885 19.1276 8.98799 19.043 8.99683 18.8529C9.00651 18.6428 9.03191 18.6258 9.26715 18.615C9.45323 18.6067 9.50065 18.6968 9.49035 18.8772C9.47847 19.0841 9.46057 19.1066 9.21573 19.1034" fill="#292D6D"/>
<path fill-rule="evenodd" clip-rule="evenodd" d="M37.3714 21.3922C37.5476 21.3646 37.6072 21.4503 37.6106 21.6402C37.6142 21.8506 37.5158 21.8757 37.3578 21.8779C37.1864 21.8802 37.1154 21.8172 37.1152 21.6238C37.1148 21.4178 37.2082 21.3696 37.3714 21.3922" fill="#292D6D"/>
<path fill-rule="evenodd" clip-rule="evenodd" d="M3.56166 18.4568C3.80142 18.4576 3.83018 18.4924 3.83548 18.6989C3.84056 18.8986 3.7458 18.9443 3.58096 18.9462C3.40954 18.9484 3.33876 18.8928 3.3379 18.6948C3.33698 18.4881 3.41962 18.4332 3.56166 18.4568Z" fill="#292D6D"/>
<path fill-rule="evenodd" clip-rule="evenodd" d="M3.04782 18.9392C2.884 18.9621 2.79174 18.9127 2.79102 18.7066C2.7904 18.5124 2.85892 18.4489 3.03252 18.4533C3.18774 18.4572 3.2929 18.4717 3.2868 18.6878C3.2815 18.8753 3.22712 18.9671 3.04782 18.9392" fill="#292D6D"/>
<path fill-rule="evenodd" clip-rule="evenodd" d="M9.78352 18.6174C10.0105 18.619 10.0338 18.6537 10.0404 18.8736C10.0463 19.0682 9.95344 19.1047 9.79882 19.1064C9.62984 19.1086 9.55242 19.0524 9.55274 18.855C9.55312 18.6502 9.64242 18.5971 9.78352 18.6174" fill="#292D6D"/>
<path fill-rule="evenodd" clip-rule="evenodd" d="M19.2454 21.7932C19.0183 21.7911 18.9954 21.7551 18.9868 21.5349C18.9782 21.3161 19.0982 21.3092 19.2488 21.3046C19.4183 21.2997 19.4758 21.3736 19.4769 21.5537C19.4782 21.7582 19.3872 21.8127 19.2454 21.7932Z" fill="#292D6D"/>
<path fill-rule="evenodd" clip-rule="evenodd" d="M30.3493 18.5814C30.1951 18.599 30.0921 18.5609 30.0979 18.3617C30.1041 18.1529 30.1515 18.1068 30.3575 18.0963C30.5423 18.087 30.5853 18.1809 30.5877 18.3617C30.5903 18.5615 30.5007 18.6041 30.3493 18.5814Z" fill="#292D6D"/>
<path fill-rule="evenodd" clip-rule="evenodd" d="M30.8776 18.1034C31.0522 18.0749 31.1102 18.1541 31.1132 18.3359C31.1164 18.5268 31.054 18.5923 30.879 18.5887C30.7206 18.5858 30.6432 18.5432 30.6466 18.3532C30.6498 18.1686 30.7018 18.0719 30.8776 18.1034Z" fill="#292D6D"/>
<path d="M0.193359 0.194408H42.8534V26.8164H0.193359V0.194408Z" stroke="#292D6D" stroke-width="0.755907" stroke-miterlimit="22.9256"/>
</g>
<defs>
<clipPath id="clip0">
<rect width="43" height="27" fill="white"/>
</clipPath>
</defs>
</svg>
