<svg width="41" height="26" viewBox="0 0 41 26" fill="none" xmlns="http://www.w3.org/2000/svg">
<g clip-path="url(#clip0)">
<path d="M29.2311 14.7628V14.7912C29.2311 16.6666 27.7895 18.0447 25.4468 18.0447C23.5547 18.0447 22.2482 17.3343 21.3473 16.3256L22.9391 14.8905C23.6598 15.6579 24.4107 16.0839 25.4769 16.0839C26.3479 16.0839 26.9636 15.6152 26.9636 14.8764C26.952 14.8568 27.1335 13.5837 24.9062 13.5837H23.9452L23.5846 12.1911L26.9568 8.98182L25.6054 9.80445H21.963V7.92923H29.0658V9.57725L26.408 11.9782C27.8345 12.2056 29.2311 12.9158 29.2311 14.7628ZM22.6387 3.38162C22.6387 2.48123 23.321 1.75652 24.2785 1.75652H25.3575L25.075 1.88991C25.0878 4.35782 25.0234 4.66866 25.1899 5.02944L24.2905 5.02925C23.333 5.02925 22.6387 4.29318 22.6387 3.39298V3.38162V3.38162ZM24.2785 5.44272H25.2366V5.11621C25.3065 5.23099 25.4005 5.32011 25.5391 5.38239C25.8439 5.5195 25.6224 5.43332 34.3627 5.45878V1.34325H33.9017V5.02259C33.9017 5.02259 25.9098 5.05177 25.7579 4.98713C25.6261 4.93092 25.5782 4.80243 25.5563 4.66552C25.5214 4.44322 25.5426 4.4391 25.5362 1.34325H24.2905C23.0158 1.34325 22.148 2.30005 22.148 3.39298V3.40434C22.148 4.49708 23.0038 5.44272 24.2785 5.44272ZM37.7603 0.906859H36.7503C36.7722 0.590339 36.6176 0 37.2981 0H37.6233V0.303984C37.3084 0.326117 37.1272 0.231317 37.1272 0.469686V0.570557H37.7603V0.906859ZM38.9277 5.50324C38.8048 5.50324 38.6798 5.48698 38.5531 5.45408L38.6742 5.03434C38.8827 5.09055 39.1492 5.09388 39.2592 4.91721C39.3875 4.70803 39.3416 4.63438 39.3484 1.34325H39.8094C39.7962 4.4154 39.8412 4.50119 39.7662 4.85728C39.6778 5.27388 39.4112 5.50324 38.9277 5.50324ZM25.5362 0.906859H25.075V0.470665H25.5362V0.906859ZM35.6829 2.41189C35.8992 2.01252 36.3534 1.79021 36.8177 1.78551V1.78473H37.5626L37.2993 1.9091V3.86776C36.9365 3.85758 36.6815 3.90047 36.3455 3.7994C35.8868 3.66269 35.576 3.32815 35.576 2.8426C35.576 2.68649 35.6116 2.54273 35.6829 2.41189ZM35.6829 3.95766C36.2831 4.36311 37.1016 4.29612 37.1443 4.30376L37.2993 3.99605C37.2743 4.29436 37.3859 4.71116 37.0919 4.91995C36.8433 5.09604 36.4001 5.09036 36.1265 5.02885C36.0133 5.00359 35.8835 4.95991 35.7374 4.89821L35.5934 5.31795C35.8856 5.42 36.1649 5.50324 36.4751 5.50324C36.9247 5.50324 37.2512 5.40237 37.4549 5.20082C37.6584 4.99889 37.7603 4.72722 37.7603 4.38563V1.34325C37.1929 1.36009 36.7625 1.28899 36.2447 1.45783C34.8572 1.91008 34.8295 3.38182 35.6829 3.95766ZM24.6141 0.906859H24.1529V0.470665H24.6141V0.906859ZM19.842 1.33855H20.3181V5.4343H19.9284L16.8622 1.75026L17.1333 2.34726V5.4343H16.657V1.33855H17.1147L20.0426 4.86217L19.842 4.35958V1.33855V1.33855ZM1.8615 5.46348L0 1.33855H0.544256C0.571944 1.40201 2.05553 4.80126 2.20595 5.14598L2.15884 4.69588L3.63023 1.33855H4.15569L2.29439 5.46348H1.8615V5.46348ZM10.1107 1.33855H10.5991V5.4341H10.1107V1.33855ZM15.3503 3.39808C15.3503 4.32844 14.6455 5.07723 13.656 5.07723C12.6665 5.07723 11.949 4.31669 11.949 3.38652V3.37457C11.949 2.4444 12.6543 1.69561 13.6436 1.69561C14.6331 1.69561 15.3503 2.45616 15.3503 3.38652V3.39808ZM13.656 1.26843C12.3387 1.26843 11.442 2.25716 11.442 3.38652V3.39808C11.442 4.52724 12.3263 5.50442 13.6436 5.50442C14.9608 5.50442 15.8576 4.51569 15.8576 3.38652V3.37457C15.8576 2.2456 14.9732 1.26843 13.656 1.26843ZM9.30463 4.32256V4.33412C9.30463 5.0361 8.68619 5.49266 7.82662 5.49266C7.14021 5.49266 6.57756 5.27623 6.0581 4.8373L6.36102 4.49806C6.8125 4.88411 7.24538 5.07704 7.84543 5.07704C8.42667 5.07704 8.80996 4.78481 8.80996 4.38093V4.36937C8.80996 3.2263 6.23126 3.98038 6.23126 2.40915V2.39759C6.23126 1.75398 6.83109 1.27998 7.65368 1.27998C8.2843 1.27998 8.73578 1.4498 9.17487 1.78336L8.89055 2.14003C7.90907 1.3832 6.71972 1.67309 6.71972 2.35666V2.36841C6.71972 2.75446 6.94226 2.97089 7.89481 3.16402C8.85955 3.36302 9.30463 3.69657 9.30463 4.32256ZM5.30784 5.4343H4.81937V1.33874H5.30784V5.4343ZM33.7408 5.89478H34.202V6.33097H33.7408V5.89478ZM32.8186 5.89478H33.2798V6.33097H32.8186V5.89478ZM3.86599 15.9844H7.87415V17.8743H0.0952551V16.1409C3.98212 13.0141 5.41136 12.403 5.41136 11.0406C5.41136 10.2023 4.82557 9.74765 3.99968 9.74765C3.18867 9.74765 2.63305 10.1737 1.85221 11.0829L0.230389 9.84715C1.26662 8.51154 2.2729 7.78684 4.1499 7.78684C6.32734 7.78684 7.76898 8.99455 7.76898 10.8559V10.8841C7.76898 13.218 5.90499 13.9703 2.70868 16.412L2.26236 16.7379L3.86599 15.9844ZM38.5825 12.9301C38.5825 14.6349 37.291 16.0273 35.4287 16.0273C33.5666 16.0273 32.2452 14.6065 32.2452 12.9015V12.8731C32.2452 11.1683 33.5368 9.77605 35.3988 9.77605C37.2607 9.77605 38.5825 11.1969 38.5825 12.9015V12.9301V12.9301ZM35.4287 7.75864C32.1853 7.75864 29.8275 10.0744 29.8275 12.9015V12.9301C29.8275 15.7574 32.1549 18.0447 35.3988 18.0447C38.6426 18.0447 41 15.7288 41 12.9015V12.8731C41 10.046 38.6723 7.75864 35.4287 7.75864Z" fill="#ADA9AE"/>
<path d="M14.1573 7.10449L14.6897 7.58789L14.1788 8.09146L13.6465 7.60806" fill="#29367B"/>
<path d="M15.377 7.60806L15.909 8.09146L16.42 7.58789L15.8877 7.10449" fill="#B1AEB3"/>
<path d="M14.627 8.24271L15.0417 8.61897L15.4392 8.22684L15.0249 7.85059" fill="#D0DA33"/>
<path d="M16.1465 8.45755L16.561 8.83401L16.9585 8.44188L16.544 8.06543" fill="#71BA44"/>
<path d="M13.9492 8.84232L14.3637 9.21877L14.7613 8.82665L14.3472 8.4502" fill="#D0DA33"/>
<path d="M15.3398 8.88822L15.7541 9.26467L16.1519 8.87255L15.7374 8.49609" fill="#27B8BE"/>
<path d="M14.7969 9.33945L15.0884 9.60426L15.3682 9.32829L15.0766 9.06348" fill="#71BA44"/>
<path d="M15.8965 9.54629L16.188 9.8111L16.468 9.53512L16.1765 9.27051" fill="#58B75E"/>
<path d="M18.2969 7.44922L19.2013 7.29203L19.3668 8.1478L18.4624 8.30499L18.2969 7.44922Z" fill="#3088C8"/>
<path d="M17.1172 7.80762L17.8428 7.68168L17.9754 8.36833L17.2498 8.49427L17.1172 7.80762Z" fill="#1E3871"/>
<path d="M18.5195 8.76367L19.2451 8.63757L19.3779 9.32419L18.6523 9.45029L18.5195 8.76367Z" fill="#27B8BE"/>
<path d="M17.5195 8.86523L18.0845 8.76711L18.1878 9.30154L17.6228 9.39967L17.5195 8.86523Z" fill="#D0DA33"/>
<path d="M18.6191 9.87988L19.1842 9.78176L19.2875 10.3164L18.7225 10.4145L18.6191 9.87988Z" fill="#B1AEB3"/>
<path d="M16.6719 9.08203L17.2371 8.98387L17.3404 9.5185L16.7752 9.61666L16.6719 9.08203Z" fill="#27B8BE"/>
<path d="M17.6992 9.78223L18.2642 9.6841L18.3676 10.2187L17.8025 10.3169L17.6992 9.78223Z" fill="#71BA44"/>
<path d="M16.9785 9.84766L17.376 9.77856L17.4488 10.1546L17.0513 10.2237L16.9785 9.84766Z" fill="#B1AEB3"/>
<path d="M17.7422 10.625L18.1396 10.5561L18.2121 10.932L17.8147 11.0009L17.7422 10.625Z" fill="#58B75E"/>
<path d="M20.9871 10.252L20.5918 11.0378L21.4224 11.4115L21.8173 10.6259" fill="#29367B"/>
<path d="M19.8092 9.88867L19.4922 10.519L20.1584 10.8188L20.4753 10.1885" fill="#27B8BE"/>
<path d="M20.3541 11.4414L20.0371 12.0719L20.7035 12.3716L21.0205 11.7413" fill="#71BA44"/>
<path d="M19.4811 10.9688L19.2344 11.4596L19.7532 11.6931L20.0001 11.2022" fill="#D0DA33"/>
<path d="M19.745 12.4014L19.498 12.8922L20.0167 13.1257L20.2638 12.6348" fill="#D0DA33"/>
<path d="M18.659 10.6768L18.4121 11.1676L18.931 11.4011L19.1779 10.9102" fill="#3088C8"/>
<path d="M19.0594 11.8125L18.8125 12.3033L19.3311 12.5368L19.5783 12.046" fill="#B1AEB3"/>
<path d="M18.4355 11.4668L18.2617 11.8121L18.6266 11.9762L18.8004 11.6311" fill="#71BA44"/>
<path d="M18.3984 12.8633L18.5717 12.518L18.9365 12.6826L18.7632 13.0278L18.3984 12.8633Z" fill="#27B8BE"/>
<path d="M21.4352 14.0146L20.6289 14.433L21.0713 15.1959L21.8776 14.7775" fill="#3088C8"/>
<path d="M20.7034 13.0674L20.0566 13.4031L20.4114 14.015L21.0582 13.6793" fill="#27B8BE"/>
<path d="M20.186 14.6289L19.5391 14.9646L19.894 15.5767L20.5408 15.241" fill="#27B8BE"/>
<path d="M19.7711 13.7617L19.2676 14.0232L19.5436 14.4995L20.0476 14.2383" fill="#29367B"/>
<path d="M19.0975 15.0693L18.5938 15.3308L18.87 15.8072L19.3738 15.5459" fill="#58B75E"/>
<path d="M19.285 13.0703L18.7812 13.3316L19.0575 13.8083L19.5615 13.5469" fill="#1E3871"/>
<path d="M18.9061 14.2119L18.4023 14.4734L18.6786 14.9497L19.1824 14.6885" fill="#D0DA33"/>
<path d="M18.6141 13.5859L18.2598 13.7699L18.4542 14.105L18.8084 13.9213" fill="#B1AEB3"/>
<path d="M18.0751 14.5156L17.7207 14.6995L17.9149 15.0347L18.2693 14.8509" fill="#27B8BE"/>
<path d="M18.4453 18.0674L18.5579 17.2037L19.4706 17.3106L19.3581 18.1743L18.4453 18.0674Z" fill="#71BA44"/>
<path d="M18.6426 16.748L18.7332 16.0553L19.4652 16.1413L19.3746 16.8341L18.6426 16.748Z" fill="#1E3871"/>
<path d="M17.2559 17.7275L17.3464 17.0348L18.0787 17.1208L17.9881 17.8136L17.2559 17.7275Z" fill="#27B8BE"/>
<path d="M17.6367 16.6621L17.7071 16.1227L18.2772 16.1895L18.2068 16.7289L17.6367 16.6621Z" fill="#71BA44"/>
<path d="M16.2832 17.3496L16.3536 16.8102L16.9236 16.877L16.8533 17.4164L16.2832 17.3496Z" fill="#B1AEB3"/>
<path d="M17.6719 15.8311L17.7424 15.2915L18.3127 15.3585L18.2421 15.8981L17.6719 15.8311Z" fill="#B1AEB3"/>
<path d="M16.6582 16.5469L16.7287 16.0075L17.299 16.0745L17.2285 16.6139L16.6582 16.5469Z" fill="#71BA44"/>
<path d="M16.998 15.7383L17.0476 15.3589L17.4485 15.4059L17.3989 15.7853L16.998 15.7383Z" fill="#B1AEB3"/>
<path d="M15.9844 16.1934L16.0339 15.8139L16.435 15.8609L16.3855 16.2404L15.9844 16.1934Z" fill="#B1AEB3"/>
<path d="M15.8387 18.9017L15.1647 18.3096L14.5391 18.9473L15.2131 19.5392" fill="#D0DA33"/>
<path d="M15.7137 6.71417L15.0397 6.12207L14.4141 6.75981L15.0881 7.35172" fill="#71BA44"/>
<path d="M16.5583 17.9457L16.0175 17.4707L15.5156 17.9823L16.0564 18.4571" fill="#27B8BE"/>
<path d="M14.828 17.974L14.2871 17.499L13.7852 18.0106L14.3259 18.4854" fill="#71BA44"/>
<path d="M15.5657 17.3268L15.1446 16.957L14.7539 17.3552L15.1748 17.725" fill="#3088C8"/>
<path d="M14.0441 17.1354L13.6232 16.7656L13.2324 17.1638L13.6535 17.5338" fill="#D0DA33"/>
<path d="M16.1068 16.6735L15.6857 16.3037L15.2949 16.7019L15.7158 17.0717" fill="#D0DA33"/>
<path d="M14.8431 16.693L14.422 16.3232L14.0312 16.7214L14.4521 17.0912" fill="#B1AEB3"/>
<path d="M15.3776 16.2339L15.0815 15.9736L14.8066 16.2539L15.1027 16.514" fill="#1E3871"/>
<path d="M14.2742 16.0433L13.9781 15.7832L13.7031 16.0633L13.9992 16.3234" fill="#B1AEB3"/>
<path d="M10.8281 17.4961L11.7299 17.3248L11.9103 18.1778L11.0085 18.3492L10.8281 17.4961Z" fill="#3088C8"/>
<path d="M12.2168 17.2539L12.9401 17.1165L13.0848 17.801L12.3615 17.9384L12.2168 17.2539Z" fill="#27B8BE"/>
<path d="M10.7988 16.3184L11.5221 16.1808L11.6669 16.8652L10.9437 17.0028L10.7988 16.3184Z" fill="#71BA44"/>
<path d="M11.9883 16.3252L12.5515 16.2182L12.6642 16.7511L12.101 16.8581L11.9883 16.3252Z" fill="#D0DA33"/>
<path d="M12.8301 16.0938L13.3933 15.9867L13.506 16.5199L12.9428 16.6269L12.8301 16.0938Z" fill="#29367B"/>
<path d="M11.793 15.4102L12.3562 15.3032L12.4689 15.8361L11.9056 15.9431L11.793 15.4102Z" fill="#3088C8"/>
<path d="M12.7109 15.4609L13.1072 15.3858L13.1864 15.7607L12.7901 15.8358L12.7109 15.4609Z" fill="#71BA44"/>
<path d="M11.9355 14.6953L12.3316 14.62L12.4109 14.9949L12.0149 15.0702L11.9355 14.6953Z" fill="#B1AEB3"/>
<path d="M9.17103 15.4171L9.55226 14.6254L8.71521 14.2646L8.33398 15.0563" fill="#27B8BE"/>
<path d="M10.3571 15.7624L10.6629 15.1272L9.99156 14.8379L9.68555 15.4731" fill="#D0DA33"/>
<path d="M9.78461 14.2186L10.0906 13.5834L9.41909 13.2939L9.11328 13.9293" fill="#3088C8"/>
<path d="M10.1426 14.4531L10.3806 13.9584L10.903 14.1843L10.665 14.679L10.1426 14.4531Z" fill="#27B8BE"/>
<path d="M11.3646 15.9141L11.6028 15.4196L11.08 15.1943L10.8418 15.6889" fill="#B1AEB3"/>
<path d="M9.85547 13.0234L10.0936 12.5288L10.616 12.7547L10.3779 13.2494L9.85547 13.0234Z" fill="#29367B"/>
<path d="M10.9688 14.7314L11.2069 14.2368L11.7293 14.4627L11.4912 14.9574L10.9688 14.7314Z" fill="#58B75E"/>
<path d="M10.5508 13.6035L10.7891 13.1089L11.3114 13.335L11.0731 13.8296L10.5508 13.6035Z" fill="#D0DA33"/>
<path d="M11.7018 14.1637L11.8694 13.8159L11.5016 13.6572L11.334 14.0053" fill="#1E3871"/>
<path d="M11.5455 13.113L11.7131 12.7649L11.3453 12.6064L11.1777 12.9545" fill="#71BA44"/>
<path d="M8.65874 11.6623L9.45777 11.2314L9.00195 10.4756L8.20312 10.9065" fill="#27B8BE"/>
<path d="M9.40654 12.5986L10.0475 12.2529L9.68177 11.6465L9.04102 11.9924" fill="#71BA44"/>
<path d="M9.89677 11.0294L10.5377 10.6837L10.172 10.0771L9.53125 10.423" fill="#1E3871"/>
<path d="M10.3277 11.8888L10.8265 11.6195L10.542 11.1475L10.043 11.4166" fill="#3088C8"/>
<path d="M10.9761 10.5714L11.4749 10.3021L11.1904 9.83008L10.6914 10.0992" fill="#71BA44"/>
<path d="M10.8255 12.5734L11.3248 12.3043L11.0402 11.832L10.541 12.1013" fill="#27B8BE"/>
<path d="M11.183 11.4259L11.682 11.1568L11.3974 10.6846L10.8984 10.9539" fill="#D0DA33"/>
<path d="M11.4873 12.0468L11.8384 11.8574L11.6382 11.5254L11.2871 11.7146" fill="#B1AEB3"/>
<path d="M12.0088 11.1083L12.3601 10.9189L12.1599 10.5869L11.8086 10.7763" fill="#71BA44"/>
<path d="M10.5645 8.33398L10.662 7.46888L11.5763 7.56153L11.4787 8.42663L10.5645 8.33398Z" fill="#71BA44"/>
<path d="M10.5918 9.50586L10.6701 8.81195L11.4038 8.88637L11.3255 9.58028L10.5918 9.50586Z" fill="#B1AEB3"/>
<path d="M11.9609 8.50586L12.0393 7.81176L12.773 7.88618L12.6946 8.58028L11.9609 8.50586Z" fill="#27B8BE"/>
<path d="M11.7793 9.44238L11.8404 8.90195L12.4115 8.95994L12.3505 9.50038L11.7793 9.44238Z" fill="#D0DA33"/>
<path d="M13.1191 8.73047L13.18 8.19001L13.7512 8.24778L13.6903 8.78824L13.1191 8.73047Z" fill="#3088C8"/>
<path d="M11.7578 10.2715L11.8189 9.73105L12.39 9.78904L12.329 10.3295L11.7578 10.2715Z" fill="#27B8BE"/>
<path d="M12.7598 9.53906L12.8208 8.99863L13.392 9.05662L13.3309 9.59706L12.7598 9.53906Z" fill="#71BA44"/>
<path d="M12.6191 10.2109L12.6621 9.83078L13.0639 9.87154L13.021 10.2517L12.6191 10.2109Z" fill="#1E3871"/>
<path d="M13.625 9.73926L13.6677 9.35907L14.0698 9.39963L14.0271 9.77981L13.625 9.73926Z" fill="#B1AEB3"/>
<path d="M17.9642 13.3647C17.4828 13.1019 16.8129 13.0255 16.1188 13.2664C15.8155 13.3751 15.5118 13.5649 15.2555 13.7508C15.0942 12.8234 15.1729 11.9625 15.2105 11.5397C15.2107 11.5373 15.2136 11.5361 15.2159 11.5375C15.5624 11.7441 15.4653 12.3215 15.3925 12.4867C15.3911 12.49 15.3963 12.4921 15.3987 12.4894C15.8306 12.006 15.6196 11.4723 15.531 11.3371C15.5149 11.3126 15.6126 11.3869 15.6928 11.4842C15.9946 11.8485 15.8552 12.2577 15.8889 12.2481C15.8897 12.2479 15.8907 12.2481 15.8911 12.2471C16.0918 11.874 16.0273 11.4008 15.6147 11.059C15.5959 11.0439 15.6694 11.0666 15.6928 11.0745C16.0447 11.1902 16.2281 11.5338 16.2257 11.8401C16.2257 11.9075 16.4633 11.2647 15.8889 10.938C15.7814 10.877 15.6711 10.8435 15.599 10.8353C15.5428 10.8296 15.9066 10.7777 16.1622 10.9419C16.3157 11.04 16.356 11.1587 16.3521 11.1254C16.3075 10.6951 15.7723 10.5251 15.4479 10.6541C15.4136 10.6704 15.5756 10.4428 15.8889 10.4604C15.9492 10.4638 16.005 10.4761 16.0496 10.4963C16.0527 10.4976 16.0556 10.4937 16.0533 10.4912C15.8167 10.2348 15.4275 10.2295 15.2208 10.526C15.2194 10.528 15.2163 10.528 15.215 10.526C15.1367 10.3931 15.0712 10.2228 15.0429 10.0622C15.0361 10.0211 15.0216 10.261 14.8646 10.526C14.8634 10.528 14.8605 10.528 14.859 10.526C14.6518 10.2287 14.2629 10.2346 14.0265 10.4912C14.024 10.4937 14.0269 10.4976 14.0302 10.4963C14.1881 10.4252 14.4863 10.4461 14.6357 10.6492C14.6375 10.652 14.6348 10.6555 14.6315 10.6541C14.2972 10.521 13.772 10.7017 13.7275 11.1254C13.7273 11.1289 13.7323 11.1309 13.7341 11.1277C13.749 11.1013 13.7858 11.0449 13.8546 10.9877C14.122 10.7644 14.5425 10.8291 14.4807 10.8353C14.3164 10.8545 13.9792 10.9932 13.8546 11.3101C13.7527 11.569 13.8509 11.91 13.8546 11.8256C13.8579 11.5375 14.0321 11.1516 14.4621 11.0533C14.4654 11.0525 14.4679 11.0568 14.4652 11.059C13.797 11.6158 14.2011 12.2996 14.1949 12.2456C14.1743 12.0248 14.1571 11.6307 14.5433 11.3332C14.5462 11.3311 14.5507 11.334 14.5487 11.3371C14.46 11.4723 14.2493 12.006 14.6809 12.4894C14.6834 12.4921 14.6886 12.49 14.6871 12.4867C14.6146 12.3215 14.5175 11.7441 14.8638 11.5375C14.8661 11.5361 14.8689 11.5373 14.8691 11.5397C14.907 11.9625 14.9857 12.8234 14.8241 13.7508C14.2753 13.3532 13.735 13.0925 13.0391 13.1215C12.689 13.136 12.357 13.2325 12.1154 13.3647C12.1068 13.3694 12.1132 13.3814 12.1225 13.3786C13.1347 13.0719 14.0108 13.4441 14.8253 14.0865C14.414 14.4263 14.0406 14.782 13.8236 14.8893C13.773 14.8237 13.6852 14.7859 13.5891 14.8057C13.4081 14.8435 13.3649 15.0584 13.4631 15.1508C13.8187 15.4871 14.3747 14.8198 15.0398 14.262C15.68 14.7983 16.2616 15.4869 16.6166 15.1508C16.6449 15.124 16.6778 15.0355 16.6608 14.9651C16.618 14.7897 16.372 14.7389 16.256 14.8893C16.0473 14.7897 15.681 14.4387 15.2543 14.0865C16.0746 13.4384 16.9412 13.0766 17.957 13.3786C17.9665 13.3814 17.9729 13.3694 17.9642 13.3647Z" fill="#727A82"/>
<path d="M14.7254 22.5456H14.9893V20.3057H14.7254V22.5456ZM7.81147 22.2959L7.39925 21.3379C7.82573 20.9957 8.3549 21.0586 8.69542 21.3379L8.2832 22.2959H7.81147ZM6.35682 22.2959C6.14936 22.29 6.00349 22.3145 5.81091 22.2571C5.09784 22.0436 5.29165 21.1038 6.08965 21.1038H6.35682V22.2959ZM13.6929 22.2959C13.2679 22.2835 12.885 22.367 12.6901 22.0463C12.7286 21.8861 12.7075 21.7423 12.7133 21.0071H12.4494V21.8528C12.4494 22.4735 11.6593 22.4332 11.4729 22.0604C11.3981 21.9106 11.4438 21.8479 11.4301 21.0071H11.1661V21.8716C11.1661 22.1537 10.9799 22.2959 10.7208 22.2959H10.2096V21.0071H9.94573V22.2959H8.56029L9.0221 21.2505C8.7601 21.0335 8.3954 20.8292 8.04579 20.8292C7.6906 20.8292 7.33292 21.0247 7.06927 21.2505L7.53439 22.2959H6.62068V20.8512H6.19854C5.6018 20.8512 5.10652 21.1763 5.10652 21.7092C5.10652 22.6578 6.33409 22.5409 6.35682 22.5456C6.35269 22.5763 6.38967 22.7906 6.23801 22.8983C6.09626 22.999 5.84314 22.9961 5.68549 22.9608C5.6206 22.9461 5.54643 22.9213 5.46295 22.8858L5.3805 23.1261C5.54787 23.1845 5.7076 23.2323 5.88509 23.2323C6.38802 23.2323 6.62068 22.9945 6.62068 22.5924V22.5456C10.9272 22.5199 10.7999 22.6043 11.0623 22.4676C11.1623 22.4157 11.2431 22.346 11.3047 22.2584C11.3686 22.3583 11.4553 22.4365 11.5653 22.4927C11.7961 22.61 12.1482 22.5991 12.362 22.4988C12.473 22.4469 12.5583 22.3668 12.6176 22.2584C12.7195 22.4234 12.8776 22.5293 13.1949 22.5426V22.5456H13.9568V20.3057H13.6929V22.2959ZM37.3703 22.1852C37.1368 22.7025 36.3331 22.7174 36.1004 22.1774C36.032 22.0189 36.032 21.8311 36.1004 21.6703C36.382 21.0086 37.4249 21.1986 37.4249 21.9247C37.4249 22.0181 37.4067 22.1051 37.3703 22.1852ZM34.8106 22.1852C34.6087 22.6298 34.0004 22.6956 33.6824 22.385C33.4215 22.1292 33.4291 21.7126 33.681 21.4613C33.8862 21.2546 34.2025 21.2213 34.4445 21.3159C34.8259 21.4668 34.953 21.8716 34.8106 22.1852ZM28.3932 22.2959C28.1913 22.29 28.045 22.315 27.8537 22.2555C27.1588 22.0391 27.3245 21.1007 28.1324 21.1007H28.3932V22.2959ZM38.5132 22.2959H37.6063C37.8894 21.7069 37.4497 21.0165 36.7254 21.0165C36.0584 21.0165 35.5919 21.6644 35.8644 22.2959H35.0464C35.3222 21.7241 34.9042 21.0165 34.1657 21.0165C33.4983 21.0165 33.0322 21.6646 33.3047 22.2959H32.4668V20.3057H32.203V22.2959H31.362C31.3475 22.0395 31.4234 21.6601 31.1969 21.4205C31.0434 21.2564 30.8725 21.2053 30.6394 21.2053H29.4718L29.9685 20.3057H29.6815L29.1749 21.2021C29.1912 21.3016 29.223 21.3794 29.2937 21.4548C30.6134 21.4654 30.6996 21.4286 30.8556 21.4908C30.9779 21.5388 31.0525 21.6264 31.0783 21.7327C31.1097 21.8608 31.0938 21.9572 31.0982 22.2959H28.6571V20.8512H28.2413C27.5421 20.8512 27.1528 21.2454 27.1528 21.6998C27.1528 22.2692 27.6359 22.5456 28.2413 22.5456H33.4762C33.8645 22.942 34.518 22.9083 34.8749 22.5456H36.0359C36.4229 22.9408 37.0759 22.9097 37.4348 22.5456H38.7772V20.3057H38.5132V22.2959V22.2959ZM39.5457 22.5456H39.8096V20.3057H39.5457V22.5456ZM20.1025 23.0952H20.3736V22.8388H20.1025V23.0952ZM22.6824 22.2959L22.27 21.3379C22.6932 20.9982 23.2215 21.0556 23.5664 21.3379L23.1542 22.2959H22.6824ZM24.5526 22.2959H23.4312L23.8929 21.2505C23.6302 21.0323 23.2643 20.8292 22.9165 20.8292C22.5601 20.8292 22.2035 21.0257 21.94 21.2505L22.4051 22.2959H21.4224V20.8512H21.1584V22.5987C21.1584 22.8194 21.1414 22.9826 20.9077 22.9826C20.8534 22.9826 20.8246 22.9781 20.7726 22.9638L20.7034 23.2043C20.9238 23.2615 21.1842 23.2423 21.3135 23.0621C21.4305 22.8989 21.4166 22.6737 21.4224 22.5456H24.8167V20.3057H24.5526V22.2959ZM4.51949 21.0695C4.22608 20.7659 3.88638 20.876 3.77067 20.8512V21.1007C3.96325 21.1077 4.0523 21.0805 4.18289 21.1397C4.29282 21.1898 4.37051 21.2707 4.40233 21.3847C4.43808 21.5157 4.41803 21.618 4.42382 22.2959H3.18674V22.5456H4.68768C4.67673 21.5996 4.71496 21.4993 4.64636 21.2879C4.61888 21.2027 4.57652 21.1299 4.51949 21.0695ZM19.1377 23.0981H19.4088V22.8417H19.1377V23.0981ZM17.5333 22.2959C17.3318 22.29 17.1853 22.315 16.9938 22.2555C16.2981 22.0389 16.4656 21.1007 17.2725 21.1007H17.5333V22.2959ZM20.3701 20.8512H20.1062V22.2959H19.1101V20.8512H18.8462V22.2959H17.7971V20.8512C17.4653 20.8609 16.9702 20.7875 16.5898 21.0928C16.0505 21.5259 16.1896 22.5456 17.3816 22.5456H20.3701V20.8512V20.8512ZM18.6755 23.0981H18.9466V22.8417H18.6755V23.0981ZM1.04092 20.3057H0.769825V20.5621H1.04092V20.3057ZM28.1936 20.3057H27.9225V20.5621H28.1936V20.3057ZM17.7959 20.3057H17.5248V20.5621H17.7959V20.3057ZM2.59765 23.0981H2.86874V22.8417H2.59765V23.0981ZM17.3337 20.3057H17.0626V20.5621H17.3337V20.3057ZM1.50314 20.3057H1.23205V20.5621H1.50314V20.3057ZM2.13542 23.0981H2.40652V22.8417H2.13542V23.0981ZM1.24052 22.2959C1.03947 22.29 0.892148 22.315 0.701225 22.2555C0.00675071 22.0397 0.170813 21.1007 0.979965 21.1007H1.24052V22.2959ZM2.81729 20.8512H2.55343V22.2959H1.50438V20.8512C1.18804 20.8604 0.936573 20.8212 0.640063 20.915C0.391491 20.9941 0.188376 21.1397 0.0776238 21.3629C-0.0376741 21.5952 -0.0168048 21.891 0.0894016 22.0806C0.280532 22.4226 0.680355 22.5456 1.08865 22.5456H2.81729V20.8512ZM25.5851 22.5456H25.849V20.3057H25.5851V22.5456ZM28.6556 20.3057H28.3845V20.5621H28.6556V20.3057Z" fill="#ADA9AE"/>
<path d="M0.259766 24.1865H0.590989V25.0832L1.48754 24.1865H1.89419L1.11066 24.9533L1.92911 25.9697H1.52804L0.884606 25.1672L0.590989 25.4526V25.9697H0.259766" fill="#ADA9AE"/>
<path d="M2.23047 24.1865H2.56169V25.9697H2.23047V24.1865Z" fill="#ADA9AE"/>
<path d="M3.07031 24.1865H3.37736L4.38715 25.4195V24.1865H4.71279V25.9697H4.4355L3.39616 24.7011V25.9697H3.07031" fill="#ADA9AE"/>
<path d="M5.125 25.0827V25.0776C5.125 24.5783 5.52896 24.1553 6.09697 24.1553C6.42551 24.1553 6.62759 24.242 6.82141 24.3974L6.61148 24.6344C6.10111 24.2234 5.47255 24.5194 5.47255 25.0725V25.0776C5.47255 25.4445 5.72814 25.7144 6.11309 25.7144C6.291 25.7144 6.45258 25.6609 6.56829 25.5794V25.2457H6.08623V24.9732H6.88877V25.722C6.21475 26.2679 5.125 25.9874 5.125 25.0827Z" fill="#ADA9AE"/>
<path d="M8.04844 25.6843C8.92744 25.6843 8.9169 24.4717 8.04844 24.4717H7.67693V25.6843H8.04844ZM7.3457 24.1865H8.04844C9.39317 24.1865 9.37499 25.9697 8.04844 25.9697H7.3457V24.1865Z" fill="#ADA9AE"/>
<path d="M10.9831 25.0827V25.0776C10.9831 24.7311 10.7165 24.4434 10.3421 24.4434C9.96789 24.4434 9.70672 24.726 9.70672 25.0725V25.0776C9.70672 25.4241 9.97326 25.712 10.3475 25.712C10.7219 25.712 10.9831 25.4292 10.9831 25.0827ZM9.35938 25.0827V25.0776C9.35938 24.5758 9.7687 24.1553 10.3475 24.1553C10.9264 24.1553 11.3304 24.5707 11.3304 25.0725V25.0776C11.3304 25.5794 10.9213 25.9997 10.3421 25.9997C9.76333 25.9997 9.35938 25.5845 9.35938 25.0827Z" fill="#ADA9AE"/>
<path d="M11.7422 24.1865H12.0949L12.6685 25.0297L13.2419 24.1865H13.5946V25.9697H13.2634V24.6909L12.6685 25.5315H12.6578L12.068 24.696V25.9697H11.7422" fill="#ADA9AE"/>
<path d="M16.4284 25.0827V25.0776C16.4284 24.7311 16.1618 24.4434 15.7874 24.4434C15.4132 24.4434 15.152 24.726 15.152 25.0725V25.0776C15.152 25.4241 15.4186 25.712 15.7928 25.712C16.1672 25.712 16.4284 25.4292 16.4284 25.0827ZM14.8047 25.0827V25.0776C14.8047 24.5758 15.214 24.1553 15.7928 24.1553C16.3717 24.1553 16.7757 24.5707 16.7757 25.0725V25.0776C16.7757 25.5794 16.3664 25.9997 15.7874 25.9997C15.2086 25.9997 14.8047 25.5845 14.8047 25.0827Z" fill="#ADA9AE"/>
<path d="M17.1875 24.1865H18.5903V24.4719H17.5187V24.9584H18.4692V25.2436H17.5187V25.9697H17.1875" fill="#ADA9AE"/>
<path d="M19.6348 25.7098L19.834 25.4856C20.0143 25.6334 20.1947 25.7175 20.429 25.7175C20.6336 25.7175 20.763 25.6283 20.763 25.4932V25.4883C20.763 25.0899 19.71 25.3618 19.71 24.6831V24.678C19.71 24.1308 20.5181 23.9911 21.0376 24.3852L20.8599 24.622C20.4264 24.3162 20.0414 24.4365 20.0414 24.6502V24.6553C20.0414 25.048 21.0942 24.7996 21.0942 25.4575V25.4626C21.0942 26.0878 20.159 26.1523 19.6348 25.7098Z" fill="#ADA9AE"/>
<path d="M22.5827 25.2617L22.2568 24.5483L21.9337 25.2617H22.5827ZM22.1087 24.1738H22.4155L23.2449 25.9697H22.8949L22.7038 25.5392H21.8124L21.6188 25.9697H21.2793L22.1087 24.1738Z" fill="#ADA9AE"/>
<path d="M23.4395 25.2132V24.1865H23.7707V25.2005C23.7707 25.5317 23.9511 25.71 24.2472 25.71C24.5408 25.71 24.7212 25.5419 24.7212 25.2132V24.1865H25.0524V25.198C25.0524 25.7303 24.7346 25.9979 24.2418 25.9979C23.7517 25.9979 23.4395 25.7303 23.4395 25.2132Z" fill="#ADA9AE"/>
<path d="M26.2418 25.6843C27.1208 25.6843 27.1105 24.4717 26.2418 24.4717H25.8703V25.6843H26.2418ZM25.5391 24.1865H26.2418C27.5865 24.1865 27.5684 25.9697 26.2418 25.9697H25.5391V24.1865Z" fill="#ADA9AE"/>
<path d="M27.6621 24.1865H27.9933V25.9697H27.6621V24.1865Z" fill="#ADA9AE"/>
<path d="M30.446 25.2617L30.1201 24.5483L29.797 25.2617H30.446ZM29.972 24.1738H30.2788L31.1082 25.9697H30.7582L30.5671 25.5392H29.6757L29.4821 25.9697H29.1426L29.972 24.1738Z" fill="#ADA9AE"/>
<path d="M32.2376 25.0705C32.4746 25.0705 32.6255 24.9533 32.6255 24.7724V24.7673C32.6255 24.5763 32.48 24.4717 32.235 24.4717H31.7531V25.0705H32.2376ZM31.4219 24.1865H32.2618C32.6602 24.1865 32.9621 24.3763 32.9621 24.7494C32.9544 24.769 33.0013 25.1623 32.5122 25.2947L33.0212 25.9697H32.6306L32.1676 25.348C32.1314 25.348 31.7318 25.348 31.7531 25.348V25.9697H31.4219V24.1865Z" fill="#ADA9AE"/>
<path d="M34.569 25.2617L34.2432 24.5483L33.92 25.2617H34.569ZM34.095 24.1738H34.4021L35.2313 25.9697H34.8812L34.6901 25.5392H33.7987L33.6051 25.9697H33.2656L34.095 24.1738Z" fill="#ADA9AE"/>
<path d="M36.418 25.6921C36.6443 25.6921 36.7815 25.6079 36.7815 25.4475V25.4424C36.7815 25.2922 36.655 25.2029 36.3939 25.2029H35.8688V25.6921H36.418V25.6921ZM36.3211 24.9381C36.5337 24.9381 36.6765 24.8591 36.6765 24.696V24.6909C36.6765 24.5508 36.5581 24.4643 36.3453 24.4643H35.8688V24.9381H36.3211ZM35.543 24.1865H36.3885C36.7199 24.1865 37.0077 24.3334 37.0077 24.64C37.0001 24.6595 37.0416 24.8934 36.7385 25.0425C36.9594 25.1138 37.1127 25.2336 37.1127 25.4755V25.4806C37.1127 25.7991 36.8354 25.9697 36.4153 25.9697H35.543V24.1865V24.1865Z" fill="#ADA9AE"/>
<path d="M37.5234 24.1865H37.8547V25.9697H37.5234V24.1865Z" fill="#ADA9AE"/>
<path d="M39.4733 25.2617L39.1475 24.5483L38.8243 25.2617H39.4733ZM38.9993 24.1738H39.3062L40.1356 25.9697H39.7855L39.5944 25.5392H38.703L38.5094 25.9697H38.1699L38.9993 24.1738Z" fill="#ADA9AE"/>
</g>
<defs>
<clipPath id="clip0">
<rect width="41" height="26" fill="white"/>
</clipPath>
</defs>
</svg>
